<svg width="500" height="500" viewBox="0 0 500 500" fill="none" xmlns="http://www.w3.org/2000/svg">
<path d="M250 490.58C382.355 490.58 489.65 428.634 489.65 352.22C489.65 275.806 382.355 213.86 250 213.86C117.645 213.86 10.35 275.806 10.35 352.22C10.35 428.634 117.645 490.58 250 490.58Z" fill="#0E3143"/>
<path d="M430.55 378.8L479.9 350.35C480.149 350.264 480.366 350.102 480.519 349.886C480.672 349.671 480.754 349.414 480.754 349.15C480.754 348.886 480.672 348.629 480.519 348.414C480.366 348.198 480.149 348.036 479.9 347.95L357.9 277.28C357.256 276.952 356.543 276.782 355.82 276.782C355.097 276.782 354.384 276.952 353.74 277.28L304.39 305.73C304.141 305.816 303.924 305.978 303.771 306.194C303.618 306.409 303.536 306.666 303.536 306.93C303.536 307.194 303.618 307.451 303.771 307.666C303.924 307.882 304.141 308.044 304.39 308.13L426.39 378.8C427.034 379.129 427.747 379.301 428.47 379.301C429.193 379.301 429.906 379.129 430.55 378.8Z" fill="#15435B"/>
<path d="M359.22 453.26C396.168 453.26 426.12 435.965 426.12 414.63C426.12 393.295 396.168 376 359.22 376C322.272 376 292.32 393.295 292.32 414.63C292.32 435.965 322.272 453.26 359.22 453.26Z" fill="#15435B"/>
<path d="M63 428.12L81.78 439C83.1256 439.68 84.6122 440.035 86.12 440.035C87.6278 440.035 89.1144 439.68 90.46 439L248.63 347.68C251.02 346.3 251.02 344.06 248.63 342.68L229.83 331.83C228.486 331.15 227.001 330.796 225.495 330.796C223.989 330.796 222.504 331.15 221.16 331.83L63 423.11C60.59 424.49 60.59 426.73 63 428.12Z" fill="#15435B"/>
<path d="M116.48 437.29L124.08 441.68C125.422 442.366 126.908 442.723 128.415 442.723C129.922 442.723 131.408 442.366 132.75 441.68L265.05 365.3C267.45 363.91 267.45 361.67 265.05 360.3L257.45 355.91C256.106 355.23 254.621 354.875 253.115 354.875C251.609 354.875 250.124 355.23 248.78 355.91L116.48 432.29C114.08 433.67 114.08 435.91 116.48 437.29Z" fill="#15435B"/>
<path d="M268.72 274.9C257.6 281.39 257.6 291.9 268.72 298.4C279.84 304.9 297.85 304.89 308.96 298.4C320.07 291.91 320.07 281.4 308.96 274.9C297.85 268.4 279.83 268.42 268.72 274.9Z" fill="#15435B"/>
<path d="M420.11 351.29L424.35 372.31L428.47 374.69L432.55 372.33L436.83 351.29L428.47 346.46L420.11 351.29Z" fill="#607E8C"/>
<path opacity="0.05" d="M420.11 351.29L424.35 372.31L428.47 374.69L432.55 372.33L436.83 351.29L428.47 346.46L420.11 351.29Z" fill="black"/>
<path d="M428.47 374.69V356.11L420.11 351.29L424.35 372.31L428.47 374.69Z" fill="#226486"/>
<path opacity="0.05" d="M420.11 351.29L422.85 364.86L428.47 368.11L434.07 364.88L436.83 351.29L428.47 346.46L420.11 351.29Z" fill="black"/>
<path d="M456.87 330.07L461.1 351.09L465.22 353.47L469.31 351.11L473.58 330.07L465.22 325.24L456.87 330.07Z" fill="#607E8C"/>
<path opacity="0.05" d="M456.87 330.07L461.1 351.09L465.22 353.47L469.31 351.11L473.58 330.07L465.22 325.24L456.87 330.07Z" fill="black"/>
<path d="M465.22 353.47V334.89L456.87 330.07L461.1 351.09L465.22 353.47Z" fill="#226486"/>
<path opacity="0.05" d="M456.87 330.07L459.6 343.64L465.22 346.89L470.82 343.66L473.58 330.07L465.22 325.24L456.87 330.07Z" fill="black"/>
<path opacity="0.05" d="M311.39 288.51L315.63 309.54L319.75 311.92L323.83 309.56L328.11 288.52L319.75 283.69L311.39 288.51Z" fill="black"/>
<path d="M319.75 311.92V293.34L311.39 288.51L315.63 309.54L319.75 311.92Z" fill="#226486"/>
<path opacity="0.05" d="M311.39 288.51L314.13 302.09L319.75 305.34L325.35 302.11L328.11 288.52L319.75 283.69L311.39 288.51Z" fill="black"/>
<path d="M428.47 364.72L474.02 338.42V239.84L428.47 266.14V364.72Z" fill="#607E8C"/>
<path d="M428.47 266.14L309.02 197.17V295.75L428.47 364.72V266.14Z" fill="#226486"/>
<path d="M309.02 197.17L428.47 266.14L474.02 239.84L354.57 170.88L309.02 197.17Z" fill="#226486"/>
<path d="M421.96 314.97L315.53 253.52V289.7L314.34 290.39L420.77 351.84L421.97 351.15L421.96 314.97Z" fill="#607E8C"/>
<path opacity="0.22" d="M420.77 315.66L314.33 254.21L314.34 290.39L420.77 351.84V315.66Z" fill="#226486"/>
<path d="M369.6 293L360.75 287.89C359.6 287.22 358.67 287.53 358.67 288.56C358.753 289.2 358.985 289.811 359.346 290.346C359.707 290.881 360.188 291.324 360.75 291.64L369.6 296.75C370.75 297.42 371.68 297.11 371.68 296.08C371.597 295.44 371.365 294.829 371.004 294.294C370.643 293.759 370.162 293.316 369.6 293Z" fill="#607E8C"/>
<path d="M421.97 271.29L315.53 209.84L315.54 246.01L314.34 246.71L420.77 308.16L421.97 307.46V271.29Z" fill="#607E8C"/>
<path opacity="0.22" d="M420.77 271.98L314.34 210.53V246.71L420.77 308.16V271.98Z" fill="#226486"/>
<path d="M369.6 249.27L360.75 244.16C359.6 243.5 358.67 243.8 358.67 244.84C358.753 245.48 358.985 246.091 359.346 246.626C359.707 247.161 360.188 247.604 360.75 247.92L369.6 253C370.75 253.66 371.68 253.36 371.68 252.32C371.589 251.687 371.355 251.082 370.994 250.554C370.633 250.025 370.157 249.586 369.6 249.27Z" fill="#607E8C"/>
<path d="M358 200.13C352.48 203.32 352.48 208.49 358 211.68C363.52 214.87 372.47 214.86 378 211.68C383.53 208.5 383.52 203.32 378 200.13C372.48 196.94 363.51 196.94 358 200.13Z" fill="#607E8C"/>
<path d="M376.78 206.62C381.59 201.71 384.41 189.46 379.72 185.57H355.86C351.17 189.46 353.99 201.7 358.8 206.57L358.93 206.71C358.98 206.76 359.04 206.81 359.09 206.87C359.23 207.004 359.377 207.131 359.53 207.25L359.64 207.34L360.01 207.62C360.21 207.76 360.42 207.9 360.63 208.02C362.849 209.145 365.302 209.731 367.79 209.731C370.278 209.731 372.731 209.145 374.95 208.02C375.16 207.9 375.37 207.76 375.58 207.62L375.92 207.36L376.06 207.25C376.21 207.13 376.35 207 376.48 206.88L376.67 206.69C376.704 206.663 376.741 206.639 376.78 206.62Z" fill="#226486"/>
<path d="M357.93 184C352.49 187.14 352.49 192.24 357.93 195.38C363.37 198.52 372.2 198.53 377.65 195.38C383.1 192.23 383.09 187.14 377.65 184C372.21 180.86 363.38 180.85 357.93 184Z" fill="#0E3143"/>
<path d="M361.79 186.23C358.48 188.14 358.48 191.23 361.79 193.15C363.648 194.097 365.704 194.59 367.79 194.59C369.876 194.59 371.932 194.097 373.79 193.15C377.1 191.24 377.1 188.15 373.79 186.23C371.932 185.283 369.876 184.79 367.79 184.79C365.704 184.79 363.648 185.283 361.79 186.23Z" fill="#F5F5F5"/>
<path d="M373.79 189.51C371.93 188.568 369.875 188.077 367.79 188.077C365.705 188.077 363.65 188.568 361.79 189.51C360.985 189.945 360.298 190.569 359.79 191.33C360.293 192.096 360.981 192.722 361.79 193.15C363.648 194.097 365.704 194.59 367.79 194.59C369.876 194.59 371.932 194.097 373.79 193.15C374.599 192.722 375.287 192.096 375.79 191.33C375.282 190.569 374.595 189.945 373.79 189.51Z" fill="#226486"/>
<path d="M362.52 191.33C360.825 189.61 359.366 187.673 358.18 185.57C356.18 182.02 355.81 177.28 356.85 176.69C357.89 176.1 362.1 180.84 362.1 180.84C361.714 178.848 361.562 176.817 361.65 174.79C361.83 171.64 362.65 168.79 363.5 168.19C364.35 167.59 366.43 171.59 367.3 174.48C368.17 177.37 368.68 179.73 368.68 179.73C369.027 177.48 369.549 175.26 370.24 173.09C371.29 170.09 372.24 169.42 372.98 169.72C373.72 170.02 374.21 171.41 374.43 175.4C374.507 177.305 374.447 179.213 374.25 181.11C374.25 181.11 375.73 179.48 377.39 177.89C379.2 176.15 379.97 175.89 380.49 176.24C381.01 176.59 381.15 179.24 378.35 184.36C376.958 186.955 375.17 189.316 373.05 191.36C373.05 191.36 369.16 193.84 362.52 191.33Z" fill="#607E8C"/>
<path d="M431.71 246.21L429.94 247.07L397.09 228.1L398.86 227.25L431.71 246.21Z" fill="#0E3143"/>
<path d="M398.86 227.25L430.11 245.29L434.66 198.54L403.41 180.52L398.86 227.25Z" fill="white"/>
<path d="M393.75 229.66L432.64 252.12L438 197L399.11 174.54L393.75 229.66ZM401.81 179.58L434.66 198.58L429.94 247.11L397.09 228.11L401.81 179.58Z" fill="#226486"/>
<path d="M397.09 228.1L398.86 227.25L403.41 180.52L401.81 179.58L397.09 228.1Z" fill="#607E8C"/>
<path d="M399.11 174.53L400.9 173.7L439.8 196.16L438 196.99L399.11 174.53Z" fill="#0E3143"/>
<path d="M439.8 196.16L438 196.99L432.64 252.12L434.43 251.28L439.8 196.16Z" fill="#607E8C"/>
<path d="M400.24 226.36L429.05 242.99L429.81 235.12L424.45 211.99L419.35 219.88L420.4 226.53L411.88 201.99L401 218.49L400.24 226.36Z" fill="#226486"/>
<path d="M424.9 202.25C425.499 202.627 425.989 203.154 426.323 203.778C426.656 204.402 426.82 205.103 426.8 205.81C426.67 207.09 425.62 207.59 424.44 206.91C423.841 206.534 423.35 206.007 423.017 205.383C422.683 204.758 422.519 204.058 422.54 203.35C422.66 202.06 423.72 201.57 424.9 202.25Z" fill="#226486"/>
<path d="M36.13 193.78L38.67 195.29L90.6 165.31L88.07 163.8L36.13 193.78Z" fill="#0E3143"/>
<path d="M88.07 163.8L38.67 192.31V71.02L88.07 42.52V163.8Z" fill="#607E8C"/>
<path d="M95.38 32.76L33.89 68.26V203.56L95.38 168.06V32.76ZM90.6 165.31L38.67 195.31V71L90.6 41V165.31Z" fill="#607E8C"/>
<path d="M90.6 165.31L88.07 163.8V42.52L90.6 41.03V165.31Z" fill="#607E8C"/>
<path d="M95.38 32.76L92.81 31.29L31.32 66.79L33.89 68.26L95.38 32.76Z" fill="#0E3143"/>
<path d="M31.32 66.79L33.89 68.26V203.56L31.32 202.09V66.79Z" fill="#607E8C"/>
<path d="M84.36 160.84L42.37 185.09V75.49L84.36 51.24V160.84Z" fill="#607E8C"/>
<path d="M84.36 160.84L42.37 185.09V75.49L84.36 51.24V160.84Z" fill="#607E8C"/>
<path d="M42.37 144.36C44.3683 144.498 46.3743 144.482 48.37 144.31C55.3642 143.788 62.251 142.291 68.83 139.86C73.91 138 79 135.55 84.37 135.4V160.84L78.68 164.12C76.4545 162.086 73.7829 160.603 70.88 159.79C62.79 157.66 54.49 161.79 46.18 162.69C44.9145 162.823 43.6425 162.887 42.37 162.88V144.36Z" fill="#0E3143"/>
<path d="M42.37 126.48C51.77 123.7 61.37 121.38 68.11 114.48C73.52 108.93 76.11 101.23 77.84 93.68C79.57 86.13 80.84 78.35 84.26 71.39C84.2928 71.3213 84.3296 71.2545 84.37 71.19V114.83C83.84 115.61 83.31 116.4 82.75 117.16C76.58 125.52 67.49 132.5 57.12 133.04C52.24 133.29 47.2 132.15 42.37 132.17V126.48Z" fill="#0E3143"/>
<path d="M42.37 98.53C49.58 92.18 53.43 81.98 51.68 72.53C51.55 71.83 51.38 71.13 51.2 70.44L67.36 61.11C67.29 62.17 67.24 63.24 67.21 64.3C67.04 70.46 67.26 76.71 65.89 82.73C64.7043 87.7826 62.447 92.5216 59.2708 96.626C56.0945 100.73 52.0735 104.105 47.48 106.52C45.8343 107.361 44.1258 108.073 42.37 108.65V98.53Z" fill="#0E3143"/>
<path d="M351.84 126.92L466.99 193.39V95.5L351.84 29.04V126.92Z" fill="#08222F"/>
<path d="M469.25 194.7L466.99 196.05L349.58 128.26L351.84 126.92L469.25 194.7Z" fill="#0E3143"/>
<path d="M345.32 130.72L471.25 203.43V93L345.32 20.33V130.72ZM349.58 27.72L467 95.5V196.05L349.6 128.27L349.58 27.72Z" fill="#607E8C"/>
<path d="M349.58 128.26L351.84 126.92V29.04L349.58 27.71V128.26Z" fill="#607E8C"/>
<path d="M345.32 20.33L347.62 19.02L473.54 91.72L471.25 93.04L345.32 20.33Z" fill="#0E3143"/>
<path d="M473.54 91.72L471.25 93.04V203.43L473.54 202.11V91.72Z" fill="#607E8C"/>
<path d="M465.11 120.21V122.86L349.58 56.08L351.84 54.73L465.11 120.21Z" fill="#0E3143"/>
<path d="M411.92 63.71L409.63 62.39V162.95L411.92 161.64V63.71Z" fill="#607E8C"/>
<path d="M405.36 59.94L409.63 62.39V162.95L405.37 160.48L405.36 59.94Z" fill="#607E8C"/>
<path d="M349.58 56.08V60.99L467.03 129.05V124.14L349.58 56.08Z" fill="#607E8C"/>
<path d="M409.63 90.87L411.92 89.46L466.99 121.29V124.14L409.63 90.87Z" fill="#0E3143"/>
<path d="M272.24 290C263.49 281 258.35 244.22 266.89 237.06H310.31C318.85 244.22 313.71 280.96 304.97 289.99L304.73 290.24L304.43 290.54C304.18 290.78 303.92 291.02 303.63 291.25L303.42 291.42C303.21 291.59 303 291.76 302.76 291.92C302.399 292.187 302.021 292.43 301.63 292.65C294.44 296.85 282.76 296.85 275.57 292.65C275.174 292.429 274.793 292.182 274.43 291.91C274.21 291.76 274.01 291.6 273.81 291.44L273.55 291.24C273.285 291.023 273.031 290.793 272.79 290.55L272.44 290.21L272.24 290Z" fill="#15435B"/>
<path d="M306.54 234.13C316.45 239.91 316.45 249.29 306.54 255.13C296.63 260.97 280.54 260.91 270.66 255.13C260.78 249.35 260.75 239.96 270.66 234.13C280.57 228.3 296.63 228.34 306.54 234.13Z" fill="#1E5978"/>
<path d="M301.78 236.91C309.05 241.16 309.05 248.05 301.78 252.3C294.51 256.55 282.7 256.55 275.42 252.3C268.14 248.05 268.15 241.16 275.42 236.91C282.69 232.66 294.5 232.66 301.78 236.91Z" fill="#607E8C"/>
<path d="M275.42 244.21C282.7 239.96 294.5 239.96 301.78 244.21C303.539 245.163 305.034 246.537 306.13 248.21C305.043 249.903 303.547 251.296 301.78 252.26C294.5 256.51 282.7 256.51 275.42 252.26C273.653 251.296 272.157 249.903 271.07 248.21C272.166 246.537 273.661 245.163 275.42 244.21Z" fill="#0E3143"/>
<path d="M308.08 169.24L291.59 182.31L307.59 174.95C307.555 180.106 306.617 185.217 304.82 190.05C300.46 192.655 296.31 195.597 292.41 198.85L304.58 194C304.58 194 305.42 202.06 302.06 214.35C301.19 217.57 297.57 223.71 295.29 228.3C294.246 230.421 293.06 232.469 291.74 234.43L291.49 234.81C288.697 233.21 285.793 231.66 282.78 230.16C280.78 226.02 278.25 215.82 277.33 207.46C273.81 175.46 298 157.13 317.45 150.98C317.45 151 310.77 159.38 308.08 169.24Z" fill="#15435B"/>
<path d="M294.3 170.57C290.93 173.96 288.96 178.41 287.45 182.86C285.972 187.356 284.989 192 284.52 196.71C283.473 206.115 284.666 215.634 288 224.49C288.025 224.6 288.009 224.716 287.955 224.816C287.901 224.915 287.814 224.992 287.708 225.032C287.602 225.072 287.486 225.073 287.379 225.034C287.273 224.995 287.185 224.919 287.13 224.82C283.892 215.805 282.833 206.152 284.04 196.65C284.592 191.926 285.655 187.275 287.21 182.78C288.82 178.35 290.87 173.9 294.3 170.57Z" fill="#607E8C"/>
<path d="M236.72 186C237.13 186.5 243.9 194.55 253.95 210.21L270.68 212.91L258.34 215.06L265 225.58L281.45 229L268.59 231.09C268.59 231.09 272.16 243.64 281.36 248.87C286.44 251.75 288.93 252.19 290.45 250.74C291.52 249.74 291.77 243.74 292.66 238.34C293.55 232.94 293.66 224.24 288.55 213.7C287.168 210.884 285.393 208.278 283.28 205.96C271.1 192.38 248.09 185.85 236.72 186Z" fill="#6DD53C"/>
<path d="M254.22 191.49C262.87 195.28 271.05 200.49 277.49 207.56C280.759 211.061 283.459 215.052 285.49 219.39C287.454 223.737 288.684 228.38 289.13 233.13V233.18C289.13 233.18 289.13 233.18 289.08 233.18C288.191 228.556 286.719 224.064 284.7 219.81C282.685 215.567 280.097 211.62 277.01 208.08C270.8 201 262.79 195.63 254.26 191.6V191.54L254.22 191.49Z" fill="#607E8C"/>
<path d="M336.38 192.92C334.977 192.9 333.575 192.963 332.18 193.11C326.67 193.738 321.259 195.044 316.07 197C314.15 197.72 312.22 198.53 310.32 199.44C309.37 199.89 308.43 200.37 307.51 200.87C302.906 203.267 298.735 206.417 295.17 210.19C293.513 212.009 292.086 214.024 290.92 216.19C290.77 216.47 290.61 216.74 290.47 217.03C290.11 217.77 289.79 218.49 289.47 219.21C286.612 225.395 285.367 232.204 285.85 239C286.02 243.8 287.66 249.29 288.59 250.19C288.719 250.308 288.86 250.411 289.01 250.5C290.38 251.37 292.55 250.86 296.62 248.59C304.78 244.05 308 232.5 308 232.5L296.66 230.57L311.21 227.67L317.12 218.45L306.25 216.45L321 214.2C325.685 206.812 330.811 199.712 336.35 192.94L336.38 192.92Z" fill="#15435B"/>
<path d="M332.18 193.11C326.67 193.738 321.259 195.044 316.07 197C314.15 197.72 312.22 198.53 310.32 199.44C309.37 199.89 308.43 200.37 307.51 200.87C302.906 203.267 298.735 206.417 295.17 210.19C293.513 212.009 292.086 214.024 290.92 216.19C290.77 216.47 290.61 216.74 290.47 217.03C290.11 217.77 289.79 218.49 289.47 219.21C286.612 225.395 285.367 232.204 285.85 239C286.02 243.8 287.66 249.29 288.59 250.19C288.719 250.308 288.86 250.411 289.01 250.5C289.287 250.664 289.592 250.776 289.91 250.83C288.91 243.38 292.56 224.51 298.11 216.75C303.87 208.67 317.55 196.96 336.36 192.92C334.964 192.899 333.568 192.962 332.18 193.11Z" fill="#E6E6E6"/>
<path d="M289.86 250.85C289.505 245.34 289.865 239.808 290.93 234.39C291.924 228.934 293.766 223.666 296.39 218.78C299.3 214.035 303.043 209.854 307.44 206.44C311.762 202.98 316.532 200.121 321.62 197.94C321.63 197.933 321.642 197.929 321.655 197.929C321.668 197.929 321.68 197.933 321.69 197.94C321.69 197.94 321.69 197.94 321.69 198C316.828 200.577 312.241 203.643 308 207.15C305.872 208.868 303.867 210.732 302 212.73C300.096 214.674 298.419 216.828 297 219.15C294.33 223.935 292.424 229.107 291.35 234.48C290.202 239.853 289.748 245.351 290 250.84C290 250.84 289.86 250.88 289.86 250.85Z" fill="#607E8C"/>
<path d="M79.47 413.59C80.91 396.44 84.79 379.4 77.8 354.38C71.94 333.38 59.65 315.67 43.17 311.91C36.34 310.35 31.09 311.2 27.44 315.67C21.02 323.53 27.2 333.94 34.51 340.54C37.72 343.44 64.81 363.16 67.72 398.16L68.31 417.73C68.3606 417.967 68.4667 418.188 68.6196 418.376C68.7725 418.564 68.9678 418.713 69.1894 418.81C69.411 418.908 69.6526 418.952 69.8944 418.938C70.1361 418.924 70.3711 418.852 70.58 418.73L79.47 413.59Z" fill="#355E74"/>
<path opacity="0.25" d="M79.47 413.59C80.91 396.44 84.79 379.4 77.8 354.38C71.94 333.38 59.65 315.67 43.17 311.91C36.34 310.35 31.09 311.2 27.44 315.67C21.02 323.53 27.2 333.94 34.51 340.54C37.72 343.44 64.81 363.16 67.72 398.16L68.31 417.73C68.3606 417.967 68.4667 418.188 68.6196 418.376C68.7725 418.564 68.9678 418.713 69.1894 418.81C69.411 418.908 69.6526 418.952 69.8944 418.938C70.1361 418.924 70.3711 418.852 70.58 418.73L79.47 413.59Z" fill="white"/>
<path d="M75 407C74.8428 406.948 74.7064 406.848 74.6109 406.713C74.5155 406.578 74.4661 406.415 74.47 406.25C75.47 364.37 63.66 337.41 36.69 323.39C36.6035 323.338 36.5287 323.269 36.4702 323.187C36.4117 323.105 36.3708 323.012 36.3501 322.913C36.3295 322.815 36.3295 322.713 36.3501 322.614C36.3707 322.515 36.4115 322.422 36.47 322.34C36.582 322.189 36.7443 322.083 36.9276 322.041C37.1109 321.998 37.3032 322.023 37.47 322.11C64.81 335.67 77 363.83 76 406.27C75.9974 406.37 75.9752 406.468 75.9346 406.559C75.894 406.651 75.8358 406.733 75.7633 406.802C75.6909 406.87 75.6056 406.924 75.5124 406.96C75.4192 406.996 75.3198 407.013 75.22 407.01L75 407Z" fill="white"/>
<path d="M62.82 423.21C62.52 417.13 59.82 407.01 49.88 392.04C41.28 379.11 26.12 370.31 24.04 362.77C21.55 353.77 29.54 346.99 42.25 350.66C57.53 355.08 74.39 379.89 74.71 416.35L62.82 423.21Z" fill="#355E74"/>
<path opacity="0.65" d="M62.82 423.21C62.52 417.13 59.82 407.01 49.88 392.04C41.28 379.11 26.12 370.31 24.04 362.77C21.55 353.77 29.54 346.99 42.25 350.66C57.53 355.08 74.39 379.89 74.71 416.35L62.82 423.21Z" fill="white"/>
<path d="M68.78 415.78C68.6396 415.737 68.5152 415.653 68.4226 415.539C68.33 415.425 68.2734 415.286 68.26 415.14C64.56 383.03 45.37 363.09 35.21 359.29C35.0185 359.216 34.8639 359.07 34.7796 358.882C34.6954 358.695 34.6883 358.482 34.76 358.29C34.7931 358.193 34.8459 358.103 34.9151 358.027C34.9843 357.951 35.0684 357.89 35.1622 357.848C35.256 357.806 35.3575 357.783 35.4603 357.782C35.5631 357.78 35.6652 357.8 35.76 357.84C47 362.07 66 382.19 69.77 415C69.7898 415.2 69.7309 415.399 69.6057 415.556C69.4806 415.713 69.2991 415.815 69.1 415.84C68.9905 415.841 68.8818 415.82 68.78 415.78Z" fill="white"/>
<path d="M211.66 24.74L80.34 100.58C78.263 101.778 76.524 103.483 75.2857 105.537C74.0474 107.59 73.3504 109.924 73.26 112.32V417.38C73.26 422.19 76.26 427.81 79.9 429.92C83.54 432.03 89.9 431.8 94.07 429.4L224.92 353.85C227.113 352.416 228.937 350.488 230.247 348.219C231.557 345.95 232.315 343.406 232.46 340.79V36.79C232.46 31.98 229.46 26.36 225.83 24.25C222.2 22.14 215.83 22.34 211.66 24.74Z" fill="#355E74"/>
<path opacity="0.3" d="M211.66 24.74L80.34 100.58C78.263 101.778 76.524 103.483 75.2857 105.537C74.0474 107.59 73.3504 109.924 73.26 112.32V417.38C73.26 422.19 76.26 427.81 79.9 429.92C83.54 432.03 89.9 431.8 94.07 429.4L224.92 353.85C227.113 352.416 228.937 350.488 230.247 348.219C231.557 345.95 232.315 343.406 232.46 340.79V36.79C232.46 31.98 229.46 26.36 225.83 24.25C222.2 22.14 215.83 22.34 211.66 24.74Z" fill="white"/>
<path d="M92.27 430.26C88.27 431.83 83.07 431.75 79.9 429.92C76.24 427.81 73.27 422.19 73.27 417.38V112.32C73.3519 110.037 74.0089 107.812 75.18 105.85L87.35 112.76C85.239 115.221 84.0045 118.312 83.84 121.55V423.55C83.83 429.29 87.49 432 92.27 430.26Z" fill="#355E74"/>
<path opacity="0.25" d="M92.27 430.26C88.27 431.83 83.07 431.75 79.9 429.92C76.24 427.81 73.27 422.19 73.27 417.38V112.32C73.3519 110.037 74.0089 107.812 75.18 105.85L87.35 112.76C85.239 115.221 84.0045 118.312 83.84 121.55V423.55C83.83 429.29 87.49 432 92.27 430.26Z" fill="black"/>
<path d="M90.48 110C88.5462 111.265 86.9368 112.966 85.7816 114.967C84.6265 116.968 83.958 119.213 83.83 121.52V423.52C83.83 430.02 88.43 432.68 94.06 429.43L224.93 353.87C227.123 352.436 228.947 350.508 230.257 348.239C231.567 345.97 232.325 343.426 232.47 340.81V36.81C232.47 32.02 229.08 30.06 224.93 32.45L90.48 110Z" fill="#355E74"/>
<path d="M97.3 128.64C95.2133 130.001 93.4767 131.835 92.231 133.993C90.9853 136.151 90.2655 138.572 90.13 141.06V400.85C90.13 405.42 93.33 407.27 97.29 404.99L220.41 333.9C222.493 332.537 224.227 330.704 225.473 328.549C226.718 326.393 227.44 323.975 227.58 321.49V61.7C227.58 57.15 224.35 55.28 220.41 57.56L97.3 128.64Z" fill="#355E74"/>
<path opacity="0.45" d="M97.3 128.64C95.2133 130.001 93.4767 131.835 92.231 133.993C90.9853 136.151 90.2655 138.572 90.13 141.06V400.85C90.13 405.42 93.33 407.27 97.29 404.99L220.41 333.9C222.493 332.537 224.227 330.704 225.473 328.549C226.718 326.393 227.44 323.975 227.58 321.49V61.7C227.58 57.15 224.35 55.28 220.41 57.56L97.3 128.64Z" fill="black"/>
<path d="M218.5 315.51V58.66L97.3 128.66C95.2133 130.021 93.4767 131.855 92.231 134.013C90.9853 136.171 90.2655 138.592 90.13 141.08V397.91L211.33 327.91C213.412 326.548 215.145 324.717 216.39 322.563C217.636 320.409 218.358 317.994 218.5 315.51Z" fill="#263238"/>
<path d="M148.6 86.34L170.42 73.75C171.72 72.99 172.77 73.53 172.77 74.94C172.717 75.7314 172.476 76.4988 172.067 77.1786C171.658 77.8585 171.094 78.4314 170.42 78.85L148.6 91.45C147.3 92.2 146.24 91.67 146.24 90.26C146.299 89.4673 146.543 88.6996 146.953 88.0186C147.363 87.3377 147.927 86.7627 148.6 86.34Z" fill="black"/>
<path d="M186 64.7C187.22 63.99 188.21 64.56 188.21 65.97C188.169 66.7373 187.948 67.4841 187.564 68.1497C187.18 68.8152 186.644 69.3807 186 69.8C184.78 70.51 183.79 69.94 183.79 68.52C183.831 67.754 184.052 67.0086 184.436 66.3447C184.821 65.6807 185.356 65.1172 186 64.7Z" fill="black"/>
<path d="M194.89 59.59C196.11 58.89 197.1 59.46 197.1 60.87C197.058 61.6369 196.835 62.3832 196.452 63.0485C196.068 63.7138 195.533 64.2795 194.89 64.7C193.67 65.4 192.68 64.83 192.68 63.42C192.722 62.6531 192.945 61.9068 193.328 61.2415C193.712 60.5762 194.247 60.0105 194.89 59.59Z" fill="black"/>
<path d="M124.13 100.44C125.35 99.74 126.34 100.31 126.34 101.72C126.299 102.487 126.078 103.234 125.694 103.9C125.31 104.565 124.774 105.131 124.13 105.55C122.91 106.26 121.92 105.68 121.92 104.27C121.962 103.503 122.185 102.757 122.568 102.092C122.952 101.426 123.487 100.861 124.13 100.44Z" fill="black"/>
<path d="M133 95.34C134.22 94.64 135.21 95.21 135.21 96.62C135.168 97.3869 134.945 98.1332 134.562 98.7985C134.178 99.4638 133.643 100.029 133 100.45C131.78 101.15 130.79 100.58 130.79 99.17C130.832 98.4031 131.055 97.6568 131.438 96.9915C131.822 96.3262 132.357 95.7605 133 95.34Z" fill="black"/>
<path d="M252.12 68.63L122.69 143.26C121.849 143.809 121.147 144.547 120.642 145.415C120.137 146.283 119.841 147.257 119.78 148.26V422.09C119.842 423.094 120.138 424.069 120.645 424.937C121.152 425.806 121.856 426.543 122.7 427.09L124.52 428.09C125.424 428.546 126.422 428.784 127.435 428.784C128.448 428.784 129.446 428.546 130.35 428.09L259.78 353.34C260.621 352.791 261.323 352.053 261.828 351.185C262.333 350.317 262.629 349.343 262.69 348.34V74.7C262.628 73.6963 262.332 72.7211 261.825 71.8527C261.318 70.9844 260.614 70.247 259.77 69.7L257.95 68.7C257.052 68.2329 256.056 67.9832 255.043 67.9711C254.031 67.9589 253.029 68.1846 252.12 68.63Z" fill="#607E8C"/>
<path d="M262.69 348.57C262.69 351.14 260.89 352.77 258.69 354.05L131.47 427.5C129.25 428.78 127.47 427.74 127.47 425.17V154C127.468 152.594 127.837 151.212 128.539 149.993C129.241 148.775 130.252 147.763 131.47 147.06L258.66 73.52C259.068 73.2925 259.528 73.1752 259.995 73.1795C260.462 73.1839 260.92 73.3099 261.324 73.545C261.728 73.7801 262.063 74.1163 262.297 74.5205C262.532 74.9247 262.657 75.3829 262.66 75.85L262.69 348.57Z" fill="#0E3143"/>
<path d="M260 74.28C260.416 74.28 260.816 74.4454 261.11 74.7398C261.405 75.0343 261.57 75.4336 261.57 75.85V348.57C261.57 350.31 260.5 351.7 258.1 353.08L130.9 426.53C130.531 426.764 130.107 426.898 129.67 426.92C128.67 426.92 128.56 425.82 128.56 425.17V154C128.558 152.785 128.875 151.591 129.481 150.538C130.087 149.484 130.959 148.609 132.01 148L259.22 74.49C259.457 74.3536 259.726 74.2812 260 74.28ZM260 73.16C259.529 73.1589 259.067 73.2831 258.66 73.52L131.45 147C130.232 147.703 129.221 148.715 128.519 149.933C127.817 151.152 127.448 152.534 127.45 153.94V425.17C127.45 426.99 128.36 428.05 129.68 428.05C130.317 428.024 130.937 427.835 131.48 427.5L258.67 354.05C260.9 352.77 262.67 351.14 262.67 348.57V75.85C262.67 75.14 262.389 74.4588 261.889 73.9549C261.389 73.451 260.71 73.1653 260 73.16Z" fill="#607E8C"/>
<path d="M262.69 74.7V75.85C262.687 75.3829 262.562 74.9247 262.327 74.5205C262.093 74.1163 261.758 73.7801 261.354 73.545C260.95 73.3099 260.492 73.1839 260.025 73.1796C259.558 73.1752 259.098 73.2925 258.69 73.52L131.45 147C130.226 147.694 129.214 148.706 128.52 149.93C128.498 149.956 128.481 149.987 128.47 150.02L120.6 145.47C121.1 144.563 121.822 143.799 122.7 143.25L252.12 68.63C253.024 68.1738 254.022 67.9361 255.035 67.9361C256.048 67.9361 257.046 68.1738 257.95 68.63L259.77 69.63C260.625 70.1821 261.335 70.9301 261.843 71.8118C262.351 72.6935 262.641 73.6836 262.69 74.7Z" fill="#F0F0F0"/>
<path d="M152.28 151.07C152.261 151.008 152.261 150.942 152.28 150.88V149.94L150.81 150.79C150.73 150.84 150.69 150.79 150.69 150.66V150.33C150.683 150.267 150.683 150.203 150.69 150.14C150.7 150.078 150.717 150.018 150.74 149.96L152.3 145.7C152.319 145.641 152.342 145.585 152.37 145.53C152.397 145.49 152.435 145.458 152.48 145.44L152.68 145.32C152.74 145.32 152.79 145.32 152.82 145.32C152.837 145.386 152.837 145.454 152.82 145.52V148.8L153.14 148.61C153.2 148.61 153.25 148.61 153.27 148.61C153.292 148.675 153.292 148.745 153.27 148.81V149C153.288 149.076 153.288 149.154 153.27 149.23C153.247 149.292 153.2 149.342 153.14 149.37L152.82 149.56V150.5C152.833 150.579 152.833 150.661 152.82 150.74C152.789 150.8 152.74 150.849 152.68 150.88L152.43 151.02C152.35 151.1 152.31 151.1 152.28 151.07ZM152.34 149.07V146.73L151.27 149.68L152.34 149.07Z" fill="#607E8C"/>
<path d="M154 149.5C153.651 148.924 153.5 148.25 153.57 147.58C153.548 146.756 153.694 145.936 154 145.17C154.23 144.557 154.66 144.039 155.22 143.7C155.399 143.593 155.595 143.518 155.8 143.48C155.957 143.443 156.122 143.468 156.26 143.55C156.26 143.55 156.26 143.55 156.26 143.63C156.263 143.667 156.263 143.703 156.26 143.74L156.13 144.23C156.119 144.271 156.098 144.309 156.07 144.34H156.01C155.885 144.298 155.751 144.287 155.62 144.308C155.49 144.329 155.366 144.381 155.26 144.46C154.88 144.692 154.588 145.044 154.43 145.46C154.212 146.027 154.11 146.633 154.13 147.24C154.079 147.741 154.18 148.247 154.42 148.69C154.62 148.93 154.88 148.95 155.22 148.75C155.354 148.679 155.478 148.592 155.59 148.49C155.697 148.396 155.791 148.288 155.87 148.17V146.65L155.26 147C155.2 147 155.16 147 155.13 147C155.113 146.931 155.113 146.859 155.13 146.79V146.58C155.115 146.501 155.115 146.419 155.13 146.34C155.16 146.282 155.205 146.234 155.26 146.2L156.26 145.64C156.33 145.64 156.38 145.64 156.4 145.64C156.423 145.718 156.423 145.802 156.4 145.88V148.06C156.407 148.123 156.407 148.187 156.4 148.25C156.396 148.305 156.375 148.358 156.34 148.4C156.063 148.874 155.666 149.267 155.19 149.54C154.72 149.86 154.31 149.84 154 149.5Z" fill="#607E8C"/>
<path d="M166.41 142C166.415 142.346 166.34 142.688 166.19 143.001C166.041 143.313 165.822 143.586 165.55 143.8C165.08 144.07 164.7 143.71 164.7 142.98C164.693 142.635 164.767 142.293 164.914 141.98C165.062 141.668 165.279 141.394 165.55 141.18C166 140.91 166.41 141.28 166.41 142Z" fill="#607E8C"/>
<path d="M165.55 139C164.542 139.725 163.832 140.791 163.55 142C163.47 142.27 163.55 142.52 163.64 142.6C163.8 142.7 164.04 142.49 164.14 142.16C164.335 141.315 164.828 140.569 165.53 140.06C165.648 139.976 165.785 139.922 165.929 139.902C166.073 139.881 166.219 139.896 166.356 139.944C166.493 139.992 166.617 140.072 166.717 140.177C166.817 140.283 166.89 140.411 166.93 140.55C167.02 140.77 167.26 140.71 167.42 140.42C167.534 140.205 167.566 139.957 167.51 139.72C167.455 139.524 167.353 139.344 167.215 139.194C167.077 139.045 166.905 138.931 166.714 138.86C166.522 138.79 166.317 138.766 166.115 138.79C165.913 138.815 165.719 138.887 165.55 139Z" fill="#607E8C"/>
<path d="M165.55 136.94C164.09 138.003 163.033 139.529 162.55 141.27C162.45 141.55 162.48 141.84 162.62 141.92C162.78 142.01 163 141.82 163.11 141.5C163.507 140.071 164.383 138.821 165.59 137.96C165.79 137.815 166.02 137.717 166.263 137.672C166.506 137.627 166.756 137.638 166.995 137.702C167.233 137.766 167.454 137.883 167.642 138.043C167.83 138.204 167.98 138.404 168.08 138.63C168.18 138.83 168.41 138.76 168.57 138.48C168.633 138.371 168.673 138.249 168.685 138.123C168.697 137.997 168.682 137.87 168.64 137.75C168.522 137.463 168.34 137.208 168.107 137.004C167.874 136.8 167.596 136.653 167.297 136.575C166.997 136.496 166.684 136.488 166.38 136.552C166.077 136.615 165.793 136.748 165.55 136.94Z" fill="#607E8C"/>
<path d="M187.82 127.2C187.809 127.175 187.803 127.148 187.803 127.12C187.803 127.092 187.809 127.065 187.82 127.04C187.82 126.972 187.841 126.906 187.88 126.85L189.1 124.66L189.19 124.5C189.219 124.459 189.256 124.425 189.3 124.4L189.74 124.14C189.756 124.128 189.775 124.121 189.795 124.121C189.815 124.121 189.834 124.128 189.85 124.14C189.859 124.162 189.864 124.186 189.864 124.21C189.864 124.234 189.859 124.258 189.85 124.28V129.89C189.863 129.953 189.863 130.017 189.85 130.08C189.827 130.133 189.789 130.179 189.74 130.21L189.28 130.47C189.264 130.482 189.245 130.489 189.225 130.489C189.205 130.489 189.186 130.482 189.17 130.47C189.153 130.425 189.153 130.375 189.17 130.33V126.04L188.37 127.46C188.347 127.511 188.309 127.553 188.26 127.58C188.244 127.591 188.225 127.596 188.205 127.596C188.185 127.596 188.166 127.591 188.15 127.58L187.82 127.2Z" fill="#607E8C"/>
<path d="M190.67 125.55C190.658 125.497 190.658 125.443 190.67 125.39C190.679 125.324 190.7 125.26 190.73 125.2L191.95 123.01L192.05 122.86C192.072 122.815 192.107 122.777 192.15 122.75L192.59 122.5C192.605 122.486 192.625 122.478 192.645 122.478C192.665 122.478 192.685 122.486 192.7 122.5C192.717 122.545 192.717 122.595 192.7 122.64V128.25C192.714 128.313 192.714 128.377 192.7 128.44C192.677 128.493 192.639 128.539 192.59 128.57L192.13 128.84C192.116 128.851 192.098 128.858 192.08 128.858C192.062 128.858 192.044 128.851 192.03 128.84C191.996 128.801 191.978 128.751 191.98 128.7V124.4L191.18 125.83C191.157 125.878 191.118 125.917 191.07 125.94C191.055 125.949 191.038 125.953 191.02 125.953C191.002 125.953 190.985 125.949 190.97 125.94L190.67 125.55Z" fill="#607E8C"/>
<path d="M194.42 123.14C194.434 123.129 194.452 123.122 194.47 123.122C194.488 123.122 194.506 123.129 194.52 123.14C194.537 123.185 194.537 123.235 194.52 123.28V124.13C194.534 124.193 194.534 124.257 194.52 124.32C194.503 124.374 194.468 124.42 194.42 124.45L193.89 124.76C193.874 124.772 193.855 124.779 193.835 124.779C193.815 124.779 193.796 124.772 193.78 124.76C193.763 124.715 193.763 124.665 193.78 124.62V123.77C193.765 123.708 193.765 123.642 193.78 123.58C193.8 123.525 193.839 123.479 193.89 123.45L194.42 123.14ZM194.42 126.14C194.434 126.129 194.452 126.122 194.47 126.122C194.488 126.122 194.506 126.129 194.52 126.14C194.529 126.162 194.534 126.186 194.534 126.21C194.534 126.234 194.529 126.258 194.52 126.28V127.13C194.534 127.193 194.534 127.257 194.52 127.32C194.5 127.372 194.466 127.418 194.42 127.45L193.89 127.75C193.875 127.764 193.855 127.772 193.835 127.772C193.815 127.772 193.795 127.764 193.78 127.75C193.763 127.705 193.763 127.655 193.78 127.61V126.76C193.765 126.698 193.765 126.632 193.78 126.57C193.803 126.514 193.841 126.466 193.89 126.43L194.42 126.14Z" fill="#607E8C"/>
<path d="M197.43 125.76C197.415 125.774 197.395 125.782 197.375 125.782C197.355 125.782 197.335 125.774 197.32 125.76C197.32 125.76 197.32 125.69 197.32 125.63V124.58L195.57 125.58C195.555 125.594 195.535 125.602 195.515 125.602C195.495 125.602 195.475 125.594 195.46 125.58C195.443 125.535 195.443 125.485 195.46 125.44V124.82C195.45 124.744 195.45 124.666 195.46 124.59L195.55 124.34L197.27 120.03C197.312 119.894 197.392 119.773 197.5 119.68L197.93 119.43C197.98 119.43 198.01 119.43 198.04 119.43C198.049 119.452 198.054 119.476 198.054 119.5C198.054 119.524 198.049 119.548 198.04 119.57V123L198.52 122.72C198.536 122.708 198.555 122.701 198.575 122.701C198.595 122.701 198.614 122.708 198.63 122.72C198.639 122.742 198.644 122.766 198.644 122.79C198.644 122.814 198.639 122.838 198.63 122.86V123.47C198.644 123.536 198.644 123.604 198.63 123.67C198.604 123.722 198.567 123.766 198.52 123.8L198.04 124.08V125.13C198.052 125.193 198.052 125.257 198.04 125.32C198.02 125.375 197.981 125.422 197.93 125.45L197.43 125.76ZM197.28 123.48V121.62L196.28 124.04L197.28 123.48Z" fill="#607E8C"/>
<path d="M199.69 118.61C199.694 118.544 199.711 118.479 199.74 118.42C199.76 118.365 199.799 118.318 199.85 118.29L201.97 117.07C201.97 117.07 202.04 117.07 202.07 117.07C202.104 117.109 202.122 117.159 202.12 117.21V117.83C202.118 117.896 202.1 117.961 202.07 118.02C202.05 118.072 202.016 118.118 201.97 118.15L200.38 119.07L200.32 120.21C200.404 120.101 200.506 120.007 200.62 119.93C200.698 119.869 200.782 119.816 200.87 119.77C201.047 119.661 201.244 119.59 201.45 119.56C201.615 119.538 201.782 119.577 201.92 119.67C202.063 119.788 202.17 119.944 202.23 120.12C202.314 120.378 202.351 120.649 202.34 120.92C202.34 121.256 202.303 121.592 202.23 121.92C202.158 122.209 202.051 122.488 201.91 122.75C201.787 122.986 201.629 123.202 201.44 123.39C201.274 123.569 201.082 123.72 200.87 123.84C200.668 123.972 200.439 124.057 200.2 124.09C200.038 124.114 199.873 124.075 199.74 123.98C199.607 123.884 199.509 123.747 199.46 123.59C199.394 123.404 199.36 123.208 199.36 123.01C199.34 122.945 199.34 122.875 199.36 122.81C199.386 122.758 199.423 122.714 199.47 122.68L199.92 122.42C199.937 122.41 199.956 122.405 199.975 122.405C199.994 122.405 200.013 122.41 200.03 122.42C200.063 122.448 200.085 122.487 200.09 122.53C200.104 122.626 200.138 122.718 200.19 122.8C200.235 122.85 200.294 122.885 200.36 122.9C200.433 122.914 200.507 122.914 200.58 122.9L200.83 122.78C201.051 122.643 201.228 122.445 201.34 122.21C201.477 121.948 201.546 121.656 201.54 121.36C201.553 121.261 201.541 121.159 201.506 121.065C201.472 120.971 201.415 120.887 201.34 120.82C201.266 120.767 201.176 120.739 201.085 120.739C200.994 120.739 200.904 120.767 200.83 120.82C200.729 120.871 200.638 120.939 200.56 121.02C200.498 121.072 200.445 121.133 200.4 121.2L200.28 121.36C200.246 121.407 200.201 121.444 200.15 121.47L199.64 121.77C199.624 121.782 199.605 121.789 199.585 121.789C199.565 121.789 199.546 121.782 199.53 121.77C199.521 121.748 199.516 121.724 199.516 121.7C199.516 121.676 199.521 121.652 199.53 121.63L199.69 118.61Z" fill="#607E8C"/>
<path d="M136.06 161.14V159.33L137.63 158.42V160.23L136.06 161.14Z" fill="#607E8C"/>
<path d="M138.41 159.78V156.16L139.98 155.26V158.88L138.41 159.78Z" fill="#607E8C"/>
<path d="M140.76 158.42V153L142.33 152.09V157.52L140.76 158.42Z" fill="#607E8C"/>
<path d="M143.11 157.07V149.83L144.68 148.92V156.16L143.11 157.07Z" fill="#607E8C"/>
<path d="M253.18 87.65C253.01 87.4 252.8 87.34 252.59 87.46L246.74 90.83C246.503 91.0565 246.319 91.3327 246.202 91.6388C246.084 91.9448 246.036 92.2731 246.06 92.6V95.89C246.05 96.2413 246.14 96.5881 246.32 96.89C246.376 96.9859 246.46 97.0626 246.56 97.11C246.612 97.1389 246.671 97.1541 246.73 97.1541C246.789 97.1541 246.848 97.1389 246.9 97.11L252.75 93.74C252.987 93.5115 253.171 93.2336 253.289 92.9259C253.406 92.6182 253.454 92.2884 253.43 91.96V88.7C253.448 88.3334 253.361 87.9693 253.18 87.65ZM246.48 96.52C246.411 96.3699 246.38 96.205 246.39 96.04V92.75C246.373 92.5001 246.41 92.2495 246.498 92.0149C246.586 91.7804 246.723 91.5673 246.9 91.39L252.75 88C252.78 87.9865 252.812 87.9795 252.845 87.9795C252.878 87.9795 252.91 87.9865 252.94 88L253.02 88.07C253.092 88.2193 253.123 88.3849 253.11 88.55V91.84C253.125 92.0907 253.087 92.3417 252.997 92.5763C252.908 92.8109 252.769 93.0235 252.59 93.2L246.74 96.56C246.63 96.62 246.54 96.61 246.48 96.52Z" fill="#607E8C"/>
<path d="M248 91.32V95.22L247.08 95.74C247.062 95.7504 247.042 95.7559 247.021 95.7561C247 95.7563 246.98 95.7511 246.962 95.741C246.944 95.7309 246.928 95.7163 246.918 95.6986C246.907 95.6809 246.901 95.6607 246.9 95.64V92.75C246.892 92.5662 246.921 92.3827 246.987 92.2108C247.052 92.0388 247.152 91.882 247.28 91.75L248 91.32Z" fill="#607E8C"/>
<path d="M248.44 91.09L249.54 90.45V94.34L248.44 94.97V91.09Z" fill="#607E8C"/>
<path d="M249.96 90.21L251.06 89.57V93.48L249.96 94.11V90.21Z" fill="#607E8C"/>
<path d="M252.59 89V91.8C252.589 92.0555 252.521 92.3064 252.393 92.5275C252.265 92.7486 252.081 92.9322 251.86 93.06L251.49 93.27V89.34L252.36 88.83C252.386 88.8113 252.417 88.8013 252.449 88.8014C252.481 88.8016 252.512 88.8118 252.537 88.8308C252.563 88.8497 252.582 88.8763 252.591 88.9068C252.601 88.9372 252.6 88.9698 252.59 89Z" fill="#607E8C"/>
<path d="M253.65 88.59C253.81 88.5 253.94 88.97 253.94 89.59V90.2C253.986 90.6948 253.886 91.1924 253.65 91.63L253.35 91.83V88.77L253.65 88.59Z" fill="#607E8C"/>
<path d="M237.18 98.54L242.87 93.48L241.11 100.89L240.28 97.81L237.18 98.54Z" fill="#607E8C"/>
<path d="M192.53 141.66C192.63 141.6 192.7 141.6 192.75 141.66C192.819 141.744 192.867 141.844 192.89 141.95L195.19 149.77C195.195 149.803 195.195 149.837 195.19 149.87C195.186 149.981 195.159 150.09 195.11 150.19C195.072 150.279 195.01 150.355 194.93 150.41L194.26 150.8C194.127 150.873 194.037 150.873 193.99 150.8C193.945 150.747 193.911 150.686 193.89 150.62L193.49 149.24L190.49 150.96L190.08 152.8C190.057 152.903 190.024 153.004 189.98 153.1C189.922 153.217 189.827 153.312 189.71 153.37L189.04 153.76C189.015 153.781 188.983 153.793 188.95 153.793C188.917 153.793 188.885 153.781 188.86 153.76C188.804 153.697 188.775 153.614 188.78 153.53C188.78 153.53 188.78 153.45 188.78 153.42L191.14 143C191.164 142.848 191.208 142.7 191.27 142.56C191.315 142.453 191.391 142.362 191.49 142.3L192.53 141.66ZM193.05 147.71L192.05 144.19L191.05 148.91L193.05 147.71Z" fill="#607E8C"/>
<path d="M197.43 148.57C197.427 148.681 197.4 148.79 197.35 148.89C197.315 148.98 197.252 149.058 197.17 149.11L196.46 149.52C196.435 149.541 196.403 149.553 196.37 149.553C196.337 149.553 196.305 149.541 196.28 149.52C196.224 149.457 196.195 149.374 196.2 149.29V139.79C196.203 139.679 196.23 139.57 196.28 139.47C196.318 139.381 196.38 139.305 196.46 139.25L197.17 138.84C197.195 138.819 197.227 138.807 197.26 138.807C197.293 138.807 197.325 138.819 197.35 138.84C197.406 138.903 197.435 138.986 197.43 139.07V148.57Z" fill="#607E8C"/>
<path d="M198.72 144.45C198.719 143.906 198.773 143.363 198.88 142.83C198.979 142.312 199.133 141.805 199.34 141.32C199.529 140.874 199.775 140.454 200.07 140.07C200.34 139.72 200.681 139.43 201.07 139.22C201.349 139.05 201.675 138.973 202 139C202.282 139.033 202.542 139.168 202.73 139.38C202.957 139.638 203.119 139.946 203.2 140.28C203.314 140.71 203.368 141.155 203.36 141.6V142.25C203.36 142.36 203.336 142.47 203.29 142.57C203.252 142.659 203.19 142.735 203.11 142.79L199.97 144.6C199.963 144.781 199.994 144.962 200.06 145.13C200.106 145.25 200.191 145.352 200.3 145.42C200.403 145.481 200.523 145.502 200.64 145.48C200.785 145.461 200.924 145.413 201.05 145.34C201.231 145.237 201.396 145.109 201.54 144.96C201.656 144.83 201.76 144.689 201.85 144.54C201.9 144.449 201.957 144.362 202.02 144.28C202.07 144.221 202.131 144.173 202.2 144.14L202.95 143.7C202.976 143.681 203.008 143.67 203.04 143.67C203.073 143.67 203.104 143.681 203.13 143.7C203.159 143.732 203.18 143.771 203.192 143.812C203.205 143.854 203.207 143.897 203.2 143.94C203.185 144.146 203.138 144.348 203.06 144.54C202.953 144.84 202.816 145.128 202.65 145.4C202.456 145.724 202.231 146.028 201.98 146.31C201.712 146.608 201.398 146.861 201.05 147.06C200.757 147.261 200.405 147.357 200.05 147.33C199.909 147.322 199.77 147.284 199.644 147.219C199.518 147.153 199.408 147.062 199.32 146.95C199.089 146.659 198.931 146.316 198.86 145.95C198.751 145.458 198.704 144.954 198.72 144.45ZM201 141C200.825 141.105 200.666 141.237 200.53 141.39C200.409 141.55 200.301 141.721 200.21 141.9C200.122 142.075 200.055 142.259 200.01 142.45C199.964 142.617 199.934 142.788 199.92 142.96L202.04 141.73C202.031 141.591 202.008 141.454 201.97 141.32C201.945 141.194 201.886 141.076 201.8 140.98C201.718 140.896 201.607 140.846 201.49 140.84C201.316 140.85 201.147 140.905 201 141Z" fill="#607E8C"/>
<path d="M205.71 136.93C205.639 136.89 205.575 136.84 205.52 136.78C205.481 136.737 205.451 136.686 205.432 136.631C205.413 136.576 205.406 136.518 205.41 136.46V135.23C205.411 135.143 205.431 135.058 205.47 134.98C205.5 134.911 205.548 134.852 205.61 134.81C205.619 134.805 205.629 134.802 205.64 134.802C205.651 134.802 205.661 134.805 205.67 134.81L208.97 136.32C209.044 136.356 209.111 136.403 209.17 136.46C209.229 136.556 209.253 136.668 209.24 136.78V137.38C209.244 137.517 209.22 137.653 209.17 137.78C209.12 137.89 209.05 138.01 208.97 138.15L205.67 143.46C205.655 143.49 205.635 143.517 205.61 143.54C205.55 143.54 205.51 143.54 205.47 143.54C205.447 143.516 205.43 143.488 205.42 143.457C205.409 143.426 205.406 143.393 205.41 143.36V142.13C205.412 141.977 205.45 141.826 205.52 141.69C205.59 141.55 205.65 141.42 205.71 141.32L207.84 137.89L205.71 136.93Z" fill="#607E8C"/>
<path d="M139.48 174L141.61 175C141.682 175.039 141.749 175.086 141.81 175.14C141.884 175.229 141.92 175.344 141.91 175.46V176.69C141.91 176.777 141.89 176.863 141.85 176.94C141.827 177.012 141.777 177.073 141.71 177.11H141.65L138.36 175.59C138.28 175.567 138.209 175.517 138.16 175.45C138.101 175.358 138.077 175.248 138.09 175.14V174.53C138.085 174.397 138.109 174.264 138.16 174.14C138.211 174.009 138.278 173.885 138.36 173.77L141.65 168.45C141.665 168.423 141.685 168.399 141.71 168.38C141.729 168.362 141.754 168.351 141.78 168.351C141.806 168.351 141.831 168.362 141.85 168.38C141.872 168.406 141.889 168.436 141.9 168.469C141.91 168.501 141.914 168.536 141.91 168.57V169.8C141.909 169.949 141.875 170.096 141.81 170.23C141.74 170.38 141.67 170.5 141.61 170.61L139.48 174Z" fill="#355E74"/>
<path d="M145 170.93C145.122 169.282 145.627 167.686 146.474 166.268C147.321 164.85 148.487 163.648 149.88 162.76L153.88 160.39C156.57 158.8 158.75 159.93 158.75 162.9C158.636 164.556 158.134 166.162 157.285 167.589C156.435 169.015 155.262 170.221 153.86 171.11L149.86 173.41C147.16 175 145 173.86 145 170.93Z" fill="#355E74"/>
<path d="M127.44 405.52V425.17C127.44 427.74 129.25 428.78 131.44 427.5L258.63 354.05C260.86 352.77 262.63 351.14 262.63 348.57V327.43L127.44 405.52Z" fill="#355E74"/>
<path opacity="0.65" d="M127.44 405.52V425.17C127.44 427.74 129.25 428.78 131.44 427.5L258.63 354.05C260.86 352.77 262.63 351.14 262.63 348.57V327.43L127.44 405.52Z" fill="white"/>
<path d="M145 405.9C144.412 406.368 143.939 406.965 143.618 407.644C143.297 408.324 143.137 409.068 143.15 409.82C143.15 411.39 143.98 412.19 145 411.6C145.588 411.132 146.061 410.535 146.382 409.856C146.703 409.176 146.863 408.432 146.85 407.68C146.81 406.11 146 405.32 145 405.9Z" fill="white"/>
<path d="M148.93 401.1L147.52 401.91V401.18C147.52 400.71 147.28 400.47 146.97 400.65L143 403C142.822 403.138 142.679 403.316 142.582 403.519C142.485 403.722 142.436 403.945 142.44 404.17V404.91L141.03 405.72C140.664 406.009 140.371 406.379 140.173 406.8C139.975 407.222 139.878 407.684 139.89 408.15V415.34C139.89 416.34 140.4 416.81 141.03 416.44L148.97 411.86C149.337 411.572 149.633 411.203 149.832 410.781C150.032 410.359 150.131 409.897 150.12 409.43V402.2C150.08 401.23 149.57 400.73 148.93 401.1ZM145 413C143.48 413.89 142.23 412.69 142.23 410.34C142.23 407.99 143.48 405.34 145 404.48C146.52 403.62 147.77 404.79 147.77 407.14C147.77 409.49 146.49 412.13 145 413Z" fill="white"/>
<path d="M163.34 390.76C161.74 391.801 160.407 393.204 159.452 394.857C158.496 396.509 157.944 398.364 157.84 400.27C157.84 403.78 160.3 405.2 163.34 403.45C164.937 402.404 166.266 400.998 167.22 399.344C168.173 397.691 168.725 395.836 168.83 393.93C168.83 390.43 166.37 389 163.34 390.76ZM166.34 396.47L164 397.79V400.64C163.98 400.81 163.898 400.967 163.77 401.08C163.641 401.194 163.476 401.256 163.305 401.256C163.134 401.256 162.969 401.194 162.84 401.08C162.712 400.967 162.63 400.81 162.61 400.64V398.59L161.01 399.51C160.91 399.577 160.791 399.612 160.67 399.61C160.548 399.609 160.429 399.576 160.324 399.515C160.218 399.453 160.131 399.366 160.07 399.26C159.979 399.102 159.954 398.915 160.001 398.738C160.048 398.562 160.163 398.412 160.32 398.32L162.61 396.99V393.9C162.63 393.73 162.712 393.573 162.84 393.46C162.969 393.346 163.134 393.284 163.305 393.284C163.476 393.284 163.641 393.346 163.77 393.46C163.898 393.573 163.98 393.73 164 393.9V396.2L165.6 395.27C165.759 395.178 165.948 395.154 166.125 395.202C166.303 395.25 166.453 395.366 166.545 395.525C166.636 395.684 166.661 395.873 166.613 396.05C166.565 396.228 166.449 396.378 166.29 396.47H166.34Z" fill="white"/>
<path d="M182 381L250.3 341.57C253 340.01 255.19 341.12 255.19 344.05C255.068 345.693 254.562 347.285 253.712 348.697C252.863 350.109 251.694 351.302 250.3 352.18L182 391.62C179.3 393.19 177.11 392.08 177.11 389.15C177.227 387.503 177.73 385.906 178.58 384.49C179.43 383.074 180.601 381.878 182 381Z" fill="#0E3143"/>
<path d="M250.61 343C252.38 342 253.81 342.81 253.81 344.85C253.75 345.96 253.43 347.041 252.874 348.003C252.317 348.966 251.542 349.784 250.61 350.39C248.84 351.39 247.41 350.58 247.41 348.54C247.47 347.43 247.79 346.349 248.346 345.387C248.903 344.424 249.678 343.606 250.61 343Z" fill="#355E74"/>
<path d="M252.42 345.49L250.91 344C250.871 343.969 250.827 343.945 250.78 343.93H250.72H250.53C250.488 343.94 250.447 343.957 250.41 343.98C250.372 344.009 250.341 344.047 250.32 344.09L248.81 347.28C248.778 347.346 248.763 347.419 248.766 347.492C248.77 347.566 248.793 347.637 248.832 347.699C248.871 347.761 248.925 347.812 248.99 347.847C249.054 347.883 249.127 347.901 249.2 347.9C249.282 347.901 249.363 347.878 249.433 347.834C249.502 347.789 249.557 347.725 249.59 347.65L250.27 346.21V349.16C250.273 349.275 250.32 349.384 250.402 349.465C250.485 349.545 250.595 349.59 250.71 349.59C250.824 349.59 250.933 349.545 251.014 349.464C251.095 349.383 251.14 349.274 251.14 349.16V345.3L251.92 346.04C252.006 346.1 252.111 346.128 252.216 346.117C252.321 346.107 252.418 346.059 252.491 345.983C252.563 345.907 252.606 345.807 252.612 345.702C252.617 345.597 252.584 345.493 252.52 345.41L252.42 345.49Z" fill="#0E3143"/>
<path d="M234.23 154.4C234.23 149.56 230.83 147.59 226.63 150.01L160 188.49C157.788 189.929 155.947 191.87 154.626 194.155C153.305 196.44 152.543 199.005 152.4 201.64V218.3C152.4 218.49 152.4 218.67 152.4 218.86C152.4 223.77 151.82 231.34 147.4 233.37C147.4 233.37 150.31 234.23 153.45 230.94C155.209 228.867 156.416 226.384 156.96 223.72C158.021 223.608 159.044 223.267 159.96 222.72L226.63 184.24C228.842 182.801 230.683 180.86 232.004 178.575C233.325 176.29 234.087 173.725 234.23 171.09V154.4Z" fill="#607E8C"/>
<path d="M210.13 173.94C210.436 173.755 210.776 173.633 211.13 173.58C211.425 173.534 211.728 173.587 211.99 173.73C212.269 173.89 212.484 174.14 212.6 174.44C212.768 174.859 212.847 175.309 212.83 175.76C212.831 176.177 212.784 176.593 212.69 177C212.607 177.373 212.489 177.738 212.34 178.09C212.207 178.432 212.054 178.766 211.88 179.09C211.71 179.41 211.55 179.71 211.41 179.99C211.27 180.27 211.13 180.55 211.01 180.83C210.904 181.085 210.836 181.355 210.81 181.63C210.798 181.761 210.764 181.89 210.71 182.01C210.675 182.112 210.609 182.199 210.52 182.26L209.69 182.74C209.658 182.764 209.62 182.778 209.58 182.778C209.54 182.778 209.502 182.764 209.47 182.74C209.438 182.703 209.415 182.66 209.401 182.614C209.387 182.567 209.383 182.518 209.39 182.47C209.407 182.048 209.467 181.629 209.57 181.22C209.677 180.844 209.804 180.473 209.95 180.11C210.103 179.757 210.263 179.423 210.43 179.11C210.61 178.8 210.76 178.5 210.91 178.22C211.06 177.94 211.17 177.67 211.27 177.42C211.358 177.19 211.405 176.946 211.41 176.7C211.455 176.537 211.445 176.364 211.38 176.207C211.316 176.051 211.201 175.921 211.054 175.837C210.907 175.753 210.737 175.721 210.569 175.745C210.402 175.769 210.247 175.848 210.13 175.97C209.403 176.503 208.915 177.3 208.77 178.19C208.741 178.306 208.704 178.419 208.66 178.53C208.611 178.619 208.539 178.691 208.45 178.74L207.57 179.25C207.545 179.267 207.515 179.276 207.485 179.276C207.455 179.276 207.425 179.267 207.4 179.25C207.373 179.219 207.352 179.182 207.34 179.143C207.328 179.103 207.325 179.061 207.33 179.02C207.35 178.565 207.431 178.114 207.57 177.68C207.715 177.176 207.916 176.689 208.17 176.23C208.415 175.757 208.71 175.311 209.05 174.9C209.35 174.518 209.715 174.193 210.13 173.94ZM210.57 183.22C210.6 183.196 210.637 183.184 210.675 183.184C210.713 183.184 210.75 183.196 210.78 183.22C210.814 183.256 210.839 183.299 210.855 183.345C210.87 183.392 210.875 183.441 210.87 183.49V185C210.87 185.129 210.839 185.256 210.78 185.37C210.738 185.476 210.664 185.566 210.57 185.63L209.63 186.17C209.603 186.195 209.567 186.208 209.53 186.208C209.493 186.208 209.457 186.195 209.43 186.17C209.398 186.133 209.373 186.09 209.358 186.044C209.343 185.998 209.336 185.949 209.34 185.9V184.42C209.341 184.291 209.372 184.165 209.43 184.05C209.465 183.946 209.536 183.857 209.63 183.8L210.57 183.22Z" fill="#607E8C"/>
<path d="M217.17 169.87C217.477 169.69 217.817 169.571 218.17 169.52C218.465 169.464 218.771 169.517 219.03 169.67C219.306 169.828 219.521 170.075 219.64 170.37C219.806 170.79 219.885 171.239 219.87 171.69C219.872 172.111 219.825 172.53 219.73 172.94C219.647 173.313 219.529 173.678 219.38 174.03C219.247 174.372 219.094 174.706 218.92 175.03C218.75 175.35 218.59 175.65 218.45 175.93C218.31 176.21 218.17 176.49 218.05 176.77C217.942 177.025 217.875 177.295 217.85 177.57C217.837 177.701 217.803 177.829 217.75 177.95C217.715 178.052 217.649 178.139 217.56 178.2L216.73 178.67C216.702 178.697 216.664 178.713 216.625 178.713C216.586 178.713 216.548 178.697 216.52 178.67C216.45 178.62 216.43 178.53 216.43 178.4C216.447 177.978 216.507 177.559 216.61 177.15C216.714 176.758 216.844 176.374 217 176C217.138 175.658 217.295 175.325 217.47 175C217.65 174.69 217.8 174.4 217.95 174.12C218.085 173.86 218.205 173.593 218.31 173.32C218.399 173.087 218.446 172.84 218.45 172.59C218.488 172.43 218.473 172.262 218.407 172.111C218.342 171.96 218.229 171.834 218.085 171.753C217.942 171.672 217.776 171.639 217.613 171.66C217.45 171.681 217.298 171.755 217.18 171.87C216.817 172.13 216.509 172.459 216.274 172.838C216.039 173.217 215.881 173.639 215.81 174.08C215.787 174.2 215.75 174.318 215.7 174.43C215.653 174.516 215.584 174.588 215.5 174.64L214.61 175.15C214.585 175.167 214.555 175.176 214.525 175.176C214.495 175.176 214.465 175.167 214.44 175.15C214.414 175.12 214.395 175.085 214.383 175.047C214.371 175.009 214.367 174.969 214.37 174.93C214.389 174.475 214.47 174.024 214.61 173.59C214.759 173.084 214.96 172.595 215.21 172.13C215.458 171.661 215.752 171.219 216.09 170.81C216.393 170.437 216.758 170.119 217.17 169.87ZM217.6 179.16C217.63 179.136 217.667 179.124 217.705 179.124C217.743 179.124 217.78 179.136 217.81 179.16C217.844 179.196 217.869 179.239 217.885 179.285C217.9 179.332 217.905 179.381 217.9 179.43V180.9C217.9 181.029 217.869 181.156 217.81 181.27C217.768 181.376 217.694 181.466 217.6 181.53L216.66 182.07C216.633 182.095 216.597 182.108 216.56 182.108C216.523 182.108 216.488 182.095 216.46 182.07C216.427 182.036 216.402 181.995 216.387 181.95C216.371 181.905 216.365 181.857 216.37 181.81V180.33C216.37 180.201 216.401 180.074 216.46 179.96C216.496 179.853 216.566 179.762 216.66 179.7L217.6 179.16Z" fill="#607E8C"/>
<path d="M224.27 165.77C224.579 165.591 224.918 165.47 225.27 165.41C225.565 165.366 225.867 165.418 226.13 165.56C226.399 165.729 226.608 165.977 226.73 166.27C226.903 166.688 226.981 167.138 226.96 167.59C226.967 168.011 226.92 168.431 226.82 168.84C226.735 169.212 226.622 169.576 226.48 169.93C226.33 170.28 226.18 170.61 226.01 170.93L225.54 171.83C225.394 172.102 225.263 172.383 225.15 172.67C225.039 172.924 224.969 173.194 224.94 173.47C224.932 173.602 224.898 173.731 224.84 173.85C224.807 173.95 224.74 174.035 224.65 174.09L223.82 174.57C223.792 174.597 223.754 174.613 223.715 174.613C223.676 174.613 223.638 174.597 223.61 174.57C223.576 174.534 223.551 174.491 223.535 174.445C223.52 174.398 223.515 174.349 223.52 174.3C223.536 173.878 223.597 173.459 223.7 173.05C223.804 172.668 223.935 172.294 224.09 171.93C224.237 171.59 224.397 171.257 224.57 170.93C224.74 170.62 224.9 170.33 225.04 170.05C225.179 169.792 225.3 169.525 225.4 169.25C225.494 169.018 225.541 168.77 225.54 168.52C225.587 168.358 225.579 168.184 225.515 168.028C225.451 167.871 225.337 167.741 225.19 167.657C225.043 167.574 224.872 167.543 224.705 167.569C224.538 167.595 224.385 167.676 224.27 167.8C223.908 168.059 223.601 168.386 223.366 168.763C223.131 169.141 222.972 169.561 222.9 170C222.877 170.12 222.84 170.238 222.79 170.35C222.743 170.436 222.674 170.508 222.59 170.56L221.7 171.07C221.675 171.087 221.645 171.096 221.615 171.096C221.585 171.096 221.555 171.087 221.53 171.07C221.504 171.038 221.484 171.002 221.472 170.962C221.46 170.923 221.456 170.881 221.46 170.84C221.48 170.388 221.561 169.941 221.7 169.51C221.853 169.005 222.054 168.517 222.3 168.05C222.548 167.581 222.842 167.139 223.18 166.73C223.484 166.349 223.853 166.024 224.27 165.77ZM224.7 175.06C224.728 175.033 224.766 175.017 224.805 175.017C224.844 175.017 224.882 175.033 224.91 175.06C224.943 175.094 224.968 175.135 224.983 175.18C224.999 175.225 225.005 175.273 225 175.32V176.8C225 176.929 224.969 177.056 224.91 177.17C224.868 177.276 224.794 177.366 224.7 177.43L223.76 177.97C223.732 177.995 223.697 178.008 223.66 178.008C223.623 178.008 223.588 177.995 223.56 177.97C223.526 177.934 223.501 177.891 223.485 177.845C223.47 177.798 223.465 177.749 223.47 177.7V176.23C223.47 176.101 223.501 175.974 223.56 175.86C223.599 175.755 223.669 175.665 223.76 175.6L224.7 175.06Z" fill="#607E8C"/>
<path d="M161.75 198.56C161.529 198.562 161.313 198.49 161.137 198.355C160.961 198.221 160.834 198.032 160.777 197.818C160.72 197.604 160.735 197.378 160.821 197.173C160.906 196.969 161.057 196.799 161.25 196.69L225.57 159.56C225.684 159.493 225.809 159.45 225.939 159.432C226.07 159.414 226.202 159.422 226.33 159.456C226.457 159.489 226.576 159.547 226.681 159.627C226.786 159.707 226.874 159.806 226.94 159.92C227.006 160.034 227.049 160.16 227.066 160.291C227.083 160.422 227.075 160.555 227.04 160.682C227.006 160.809 226.946 160.929 226.866 161.033C226.785 161.137 226.685 161.225 226.57 161.29L162.25 198.43C162.098 198.516 161.925 198.561 161.75 198.56Z" fill="#0E3143"/>
<path d="M161.75 205.89C161.529 205.892 161.313 205.82 161.137 205.685C160.961 205.551 160.834 205.362 160.777 205.148C160.72 204.934 160.735 204.708 160.821 204.503C160.906 204.299 161.057 204.129 161.25 204.02L201.87 180.62C202.101 180.487 202.375 180.452 202.632 180.521C202.889 180.591 203.107 180.759 203.24 180.99C203.373 181.221 203.408 181.495 203.339 181.752C203.269 182.009 203.101 182.227 202.87 182.36L162.25 205.76C162.098 205.846 161.925 205.891 161.75 205.89Z" fill="#0E3143"/>
<path d="M161.75 213.27C161.574 213.271 161.401 213.225 161.248 213.137C161.095 213.049 160.968 212.923 160.88 212.77C160.75 212.54 160.715 212.269 160.785 212.014C160.854 211.759 161.021 211.542 161.25 211.41L201.87 188C202.101 187.867 202.375 187.832 202.632 187.901C202.889 187.971 203.107 188.139 203.24 188.37C203.373 188.601 203.408 188.875 203.339 189.132C203.269 189.389 203.101 189.607 202.87 189.74L162.25 213.14C162.098 213.226 161.925 213.271 161.75 213.27Z" fill="#0E3143"/>
<path d="M141.44 237.51C139.2 238.81 137.38 237.43 137.38 234.44C137.38 231.45 139.2 227.97 141.44 226.68C143.68 225.39 145.5 226.76 145.5 229.75C145.5 232.74 143.68 236.22 141.44 237.51Z" fill="#607E8C"/>
<path d="M142.86 231.42L140 233.05C139.785 233.202 139.606 233.398 139.474 233.626C139.343 233.854 139.263 234.108 139.24 234.37L139.04 236.12C139.76 237.87 143.04 235.73 143.74 233.12L143.6 231.82C143.56 231.38 143.24 231.2 142.86 231.42Z" fill="#0E3143"/>
<path d="M142.79 229C142.782 229.506 142.656 230.002 142.421 230.45C142.187 230.898 141.851 231.285 141.44 231.58C140.69 232.01 140.09 231.58 140.09 230.58C140.097 230.074 140.223 229.577 140.458 229.129C140.692 228.681 141.029 228.294 141.44 228C142.18 227.55 142.79 228 142.79 229Z" fill="#0E3143"/>
<path d="M201.19 281.45C201.19 276.61 197.79 274.64 193.59 277.07L160 296.45C157.788 297.889 155.947 299.83 154.626 302.115C153.305 304.4 152.543 306.965 152.4 309.6V312.9C152.4 313.09 152.4 313.27 152.4 313.46C152.4 318.37 151.82 325.94 147.4 327.97C147.4 327.97 150.31 328.83 153.45 325.54C155.209 323.467 156.416 320.984 156.96 318.32C158.021 318.208 159.044 317.867 159.96 317.32L193.59 297.93C195.802 296.491 197.643 294.55 198.964 292.265C200.285 289.98 201.047 287.415 201.19 284.78V281.45Z" fill="#607E8C"/>
<path d="M141.44 336C139.2 337.3 137.38 335.92 137.38 332.93C137.38 329.94 139.2 326.46 141.44 325.17C143.68 323.88 145.5 325.25 145.5 328.24C145.5 331.23 143.68 334.72 141.44 336Z" fill="#607E8C"/>
<path d="M142.86 329.92L140 331.55C139.785 331.702 139.606 331.898 139.474 332.126C139.343 332.354 139.263 332.608 139.24 332.87L139.04 334.62C139.76 336.37 143.04 334.23 143.74 331.62L143.6 330.32C143.56 329.88 143.24 329.7 142.86 329.92Z" fill="#0E3143"/>
<path d="M142.79 327.5C142.782 328.006 142.656 328.502 142.421 328.95C142.187 329.398 141.851 329.785 141.44 330.08C140.69 330.51 140.09 330.08 140.09 329.08C140.097 328.574 140.223 328.077 140.458 327.629C140.692 327.181 141.029 326.794 141.44 326.5C142.18 326.05 142.79 326.51 142.79 327.5Z" fill="#0E3143"/>
<path d="M161.05 304.11C160.829 304.112 160.613 304.04 160.437 303.905C160.261 303.771 160.134 303.582 160.077 303.368C160.02 303.154 160.035 302.928 160.121 302.723C160.206 302.519 160.357 302.349 160.55 302.24L192.71 283.73C192.824 283.658 192.951 283.609 193.084 283.587C193.217 283.565 193.353 283.571 193.484 283.603C193.615 283.635 193.739 283.693 193.846 283.774C193.954 283.855 194.045 283.957 194.112 284.073C194.18 284.19 194.223 284.319 194.239 284.453C194.255 284.587 194.244 284.723 194.207 284.853C194.169 284.982 194.106 285.103 194.021 285.207C193.935 285.311 193.83 285.397 193.71 285.46L161.55 304C161.396 304.079 161.223 304.117 161.05 304.11Z" fill="#0E3143"/>
<path d="M161.05 310.49C160.829 310.492 160.613 310.42 160.437 310.285C160.261 310.151 160.134 309.962 160.077 309.748C160.02 309.534 160.035 309.308 160.121 309.103C160.206 308.899 160.357 308.729 160.55 308.62L192.71 290.11C192.824 290.044 192.95 290.001 193.081 289.984C193.212 289.967 193.345 289.976 193.472 290.01C193.599 290.044 193.719 290.104 193.823 290.184C193.927 290.265 194.015 290.365 194.08 290.48C194.21 290.71 194.245 290.981 194.175 291.236C194.106 291.491 193.939 291.708 193.71 291.84L161.55 310.35C161.4 310.443 161.227 310.492 161.05 310.49Z" fill="#0E3143"/>
<path d="M234.23 301.89C234.23 297.04 230.83 295.08 226.63 297.5L160 336C157.788 337.439 155.947 339.38 154.626 341.665C153.305 343.95 152.543 346.515 152.4 349.15V364.51C152.4 364.71 152.4 364.89 152.4 365.07C152.4 369.98 151.82 377.55 147.4 379.58C147.4 379.58 150.31 380.44 153.45 377.15C155.211 375.078 156.418 372.594 156.96 369.93C158.022 369.823 159.046 369.481 159.96 368.93L226.63 330.45C228.842 329.011 230.683 327.07 232.004 324.785C233.325 322.5 234.087 319.935 234.23 317.3V301.89Z" fill="#607E8C"/>
<path d="M141.44 387.61C139.2 388.9 137.38 387.52 137.38 384.54C137.38 381.56 139.2 378.07 141.44 376.77C143.68 375.47 145.5 376.86 145.5 379.85C145.5 382.84 143.68 386.31 141.44 387.61Z" fill="#607E8C"/>
<path d="M142.86 381.51L140 383.15C139.785 383.302 139.606 383.498 139.474 383.726C139.343 383.954 139.263 384.208 139.24 384.47L139.04 386.21C139.76 387.96 143.04 385.83 143.74 383.21L143.6 381.92C143.56 381.47 143.24 381.29 142.86 381.51Z" fill="#0E3143"/>
<path d="M142.79 379.1C142.78 379.604 142.653 380.099 142.419 380.545C142.185 380.991 141.849 381.376 141.44 381.67C140.69 382.1 140.09 381.67 140.09 380.67C140.097 380.166 140.223 379.67 140.458 379.224C140.692 378.777 141.029 378.392 141.44 378.1C142.18 377.65 142.79 378.1 142.79 379.1Z" fill="#0E3143"/>
<path d="M161.75 345.35C161.529 345.352 161.313 345.28 161.137 345.145C160.961 345.011 160.834 344.822 160.777 344.608C160.72 344.394 160.735 344.168 160.821 343.963C160.906 343.759 161.057 343.589 161.25 343.48L226.25 305.96C226.364 305.893 226.489 305.85 226.619 305.832C226.75 305.814 226.882 305.822 227.01 305.856C227.137 305.889 227.256 305.947 227.361 306.027C227.466 306.107 227.554 306.206 227.62 306.32C227.686 306.434 227.729 306.56 227.746 306.691C227.763 306.822 227.755 306.955 227.72 307.082C227.686 307.209 227.626 307.329 227.546 307.433C227.465 307.537 227.365 307.625 227.25 307.69L162.25 345.21C162.099 345.3 161.926 345.348 161.75 345.35Z" fill="#0E3143"/>
<path d="M161.75 352.68C161.529 352.682 161.313 352.61 161.137 352.475C160.961 352.341 160.834 352.152 160.777 351.938C160.72 351.724 160.735 351.498 160.821 351.293C160.906 351.089 161.057 350.919 161.25 350.81L226.25 313.36C226.364 313.288 226.491 313.239 226.624 313.217C226.757 313.195 226.893 313.201 227.024 313.233C227.155 313.265 227.279 313.323 227.386 313.404C227.494 313.485 227.585 313.587 227.652 313.703C227.72 313.82 227.763 313.949 227.779 314.083C227.795 314.217 227.784 314.353 227.747 314.483C227.709 314.612 227.646 314.733 227.561 314.837C227.475 314.941 227.37 315.027 227.25 315.09L162.25 352.54C162.099 352.63 161.926 352.678 161.75 352.68Z" fill="#0E3143"/>
<path d="M161.75 360.06C161.529 360.062 161.313 359.99 161.137 359.855C160.961 359.721 160.834 359.532 160.777 359.318C160.72 359.104 160.735 358.878 160.821 358.673C160.906 358.469 161.057 358.299 161.25 358.19L226.25 320.74C226.364 320.668 226.491 320.619 226.624 320.597C226.757 320.575 226.893 320.581 227.024 320.613C227.155 320.645 227.279 320.703 227.386 320.784C227.494 320.865 227.585 320.967 227.652 321.083C227.72 321.2 227.763 321.329 227.779 321.463C227.795 321.597 227.784 321.733 227.747 321.863C227.709 321.992 227.646 322.113 227.561 322.217C227.475 322.321 227.37 322.407 227.25 322.47L162.25 359.92C162.099 360.01 161.926 360.058 161.75 360.06Z" fill="#0E3143"/>
<path d="M335 386.69C334.81 382.09 332.16 335.34 332.16 335.34L355.46 352.12C351.83 378.65 350.3 386.76 350.04 391.18C350.123 391.551 350.15 391.931 350.12 392.31C349.89 397.56 343.55 400.18 338.55 403.51C334.28 406.449 329.77 409.024 325.07 411.21C321.47 412.77 314.29 412.68 313.49 410.49C319.58 406.4 326.61 401.94 331.49 397.2C333.82 394.94 335.2 392.22 335 386.69Z" fill="#FFA8A7"/>
<path d="M306.37 415.85C306.09 415.85 305.54 419 307.02 420.41C308.74 422.03 313.86 424.78 320.79 424.12C327.72 423.46 331.53 421.42 334.38 419.17C337.23 416.92 341.22 413.75 344.38 413.17C347.3 412.62 350.5 411.4 351.46 410.52C352.42 409.64 352.46 405.59 352.46 405.59L306.37 415.85Z" fill="#263238"/>
<path d="M350.1 389.89C350.338 389.914 350.559 390.021 350.724 390.194C350.889 390.366 350.987 390.592 351 390.83C351.17 391.95 351.36 395.22 351.75 397.07C352.29 399.64 352.75 404.91 352.25 406.97C351.75 409.03 347.02 410.31 343.96 411.37C340.343 412.824 336.971 414.824 333.96 417.3C330.62 419.9 323.7 422.38 319.2 422.3C312.34 422.16 307.97 420.1 306.69 417.55C305.11 414.38 305.69 412.2 313.74 408.76C316.81 407.279 319.798 405.634 322.69 403.83C327.304 400.995 330.93 396.804 333.07 391.83C333.276 391.168 333.699 390.594 334.27 390.2C334.76 390.005 335.3 389.973 335.81 390.11C337.11 390.34 340.89 390.96 342.07 391.59C343.25 392.22 344.59 392.79 344.51 394.16C344.465 394.638 344.347 395.107 344.16 395.55C344.05 395.83 343.97 396.2 344.16 396.38C344.35 396.56 344.69 396.38 344.91 396.2C345.712 395.417 346.455 394.575 347.13 393.68C347.51 393.211 347.947 392.791 348.43 392.43C348.907 392.18 349.368 391.899 349.81 391.59C349.81 391.59 350.05 390.54 350.1 389.89Z" fill="#607E8C"/>
<path d="M313.5 408.75C323.4 409.8 327.55 416.32 326.29 421.03C324 421.819 321.601 422.244 319.18 422.29C312.32 422.15 307.67 420.09 306.39 417.53C304.9 414.54 306.35 411.22 313.5 408.75Z" fill="#0E3143"/>
<path d="M327 410.18C327.056 410.186 327.112 410.18 327.166 410.163C327.219 410.146 327.268 410.117 327.31 410.08C327.362 410.041 327.406 409.993 327.44 409.937C327.473 409.882 327.495 409.82 327.504 409.756C327.513 409.692 327.51 409.626 327.494 409.564C327.478 409.501 327.449 409.442 327.41 409.39C326.306 408.138 324.945 407.139 323.419 406.462C321.893 405.786 320.239 405.447 318.57 405.47C318.506 405.475 318.443 405.493 318.385 405.522C318.328 405.552 318.277 405.592 318.235 405.641C318.193 405.691 318.161 405.748 318.142 405.809C318.122 405.871 318.115 405.936 318.12 406C318.122 406.064 318.138 406.126 318.165 406.183C318.192 406.241 318.231 406.292 318.279 406.334C318.326 406.376 318.382 406.408 318.442 406.428C318.503 406.448 318.567 406.455 318.63 406.45C320.138 406.444 321.629 406.756 323.008 407.366C324.387 407.976 325.621 408.87 326.63 409.99C326.673 410.048 326.729 410.095 326.793 410.128C326.857 410.161 326.928 410.179 327 410.18Z" fill="#F0F0F0"/>
<path d="M331 407.77C331.112 407.772 331.221 407.737 331.31 407.67C331.412 407.587 331.479 407.469 331.496 407.338C331.512 407.208 331.478 407.076 331.4 406.97C330.299 405.715 328.938 404.714 327.411 404.038C325.885 403.361 324.23 403.024 322.56 403.05C322.494 403.055 322.43 403.072 322.371 403.101C322.312 403.131 322.26 403.172 322.217 403.221C322.174 403.271 322.141 403.329 322.12 403.391C322.099 403.453 322.09 403.519 322.095 403.585C322.1 403.651 322.117 403.715 322.146 403.774C322.176 403.833 322.217 403.885 322.266 403.928C322.316 403.971 322.374 404.004 322.436 404.025C322.498 404.046 322.564 404.055 322.63 404.05C324.137 404.041 325.629 404.351 327.007 404.96C328.386 405.568 329.621 406.461 330.63 407.58C330.675 407.636 330.731 407.682 330.795 407.714C330.858 407.747 330.928 407.766 331 407.77Z" fill="#F0F0F0"/>
<path d="M335 404.67C335.112 404.674 335.221 404.638 335.31 404.57C335.412 404.489 335.478 404.372 335.495 404.243C335.512 404.114 335.478 403.984 335.4 403.88C334.297 402.627 332.936 401.627 331.41 400.95C329.884 400.274 328.229 399.936 326.56 399.96C326.427 399.969 326.304 400.031 326.217 400.131C326.13 400.232 326.086 400.362 326.095 400.495C326.104 400.628 326.166 400.751 326.266 400.838C326.367 400.925 326.497 400.969 326.63 400.96C328.137 400.955 329.629 401.268 331.007 401.878C332.386 402.488 333.62 403.381 334.63 404.5C334.674 404.555 334.73 404.6 334.795 404.629C334.859 404.659 334.929 404.673 335 404.67Z" fill="#F0F0F0"/>
<path d="M338.85 401.56C338.961 401.57 339.072 401.538 339.16 401.47C339.212 401.432 339.256 401.383 339.29 401.327C339.323 401.272 339.345 401.21 339.354 401.146C339.363 401.082 339.36 401.016 339.344 400.954C339.328 400.891 339.299 400.832 339.26 400.78C337.46 398.27 333.26 396.5 329.6 396.78C329.536 396.784 329.473 396.8 329.416 396.829C329.358 396.857 329.307 396.897 329.265 396.945C329.223 396.994 329.192 397.05 329.172 397.111C329.152 397.172 329.145 397.236 329.15 397.3C329.158 397.428 329.216 397.548 329.311 397.634C329.406 397.72 329.532 397.765 329.66 397.76C332.92 397.52 336.88 399.14 338.48 401.36C338.521 401.421 338.576 401.471 338.64 401.506C338.705 401.541 338.777 401.559 338.85 401.56Z" fill="#F0F0F0"/>
<path d="M377.17 349.74L401.71 345.64C402.03 360.19 400.99 379.64 400.51 393.01C400.42 395.58 401.51 412.96 400.68 418.28C399.41 426.28 388.68 425.53 387.89 420.79C387.1 416.05 386.73 395.89 386.6 393.79C386.28 385.04 381.6 370.24 378.41 354.61C378.26 353.86 377.32 350.49 377.17 349.74Z" fill="#FFA8A7"/>
<path d="M384 424.22C384 428.89 384.61 432.03 386.3 434.87C387.99 437.71 391.47 438.76 395.1 438.17C398.73 437.58 403.46 435.7 404.75 431.75C406.04 427.8 406.02 425.03 405.49 420.67L384 424.22Z" fill="#263238"/>
<path d="M400.57 391.53C402.04 391.72 401.98 397.8 402.42 404.11C402.88 410.87 404.97 413.77 405.42 419.32C405.93 425.65 405.37 428.44 402.62 432.09C399.87 435.74 390.79 438.97 386.79 433.27C383.54 428.63 383.72 423.71 384.46 417.45C385.221 412.164 385.685 406.838 385.85 401.5C385.85 396.78 385.15 392.37 386.47 391.92C386.47 392.62 386.56 393.5 386.61 394.19C386.66 394.71 386.61 397.27 387.46 397.34C387.567 396.756 387.613 396.163 387.6 395.57C387.572 395.299 387.602 395.025 387.688 394.766C387.775 394.508 387.915 394.27 388.1 394.07C388.819 393.665 389.617 393.419 390.44 393.35C391.91 393.18 393.38 393.04 394.86 393.01C395.6 393.01 396.34 393.01 397.08 393.01C397.71 393.036 398.334 393.153 398.93 393.36C399.097 393.414 399.251 393.503 399.382 393.62C399.513 393.737 399.618 393.88 399.69 394.04C399.74 394.277 399.74 394.523 399.69 394.76C399.668 395.196 399.702 395.633 399.79 396.06C399.79 396.25 399.96 396.49 400.18 396.45C400.4 396.41 400.43 396.24 400.44 396.09C400.5 395.33 400.44 394.77 400.44 393.89C400.44 393.48 400.44 393.09 400.44 392.68C400.44 392.27 400.57 391.93 400.57 391.53Z" fill="#607E8C"/>
<path d="M405.58 423C405.58 426.92 405.15 429.57 403 432.44C400.25 436.09 390.45 439.28 386.46 433.59C384.46 430.76 384.1 427.52 384.02 424.24C386.91 420.18 401.7 419.18 405.58 423Z" fill="#0E3143"/>
<path d="M388.26 417.61H388.44C392.589 416.328 397.006 416.183 401.23 417.19C401.365 417.228 401.51 417.216 401.637 417.155C401.764 417.094 401.865 416.989 401.92 416.86C401.936 416.796 401.939 416.729 401.929 416.663C401.918 416.597 401.894 416.535 401.859 416.478C401.823 416.422 401.777 416.374 401.722 416.336C401.667 416.299 401.605 416.273 401.54 416.26C397.08 415.175 392.408 415.331 388.03 416.71C387.966 416.727 387.907 416.758 387.856 416.801C387.805 416.843 387.764 416.896 387.735 416.956C387.707 417.016 387.692 417.081 387.691 417.147C387.69 417.214 387.703 417.279 387.73 417.34C387.784 417.43 387.862 417.503 387.956 417.551C388.05 417.599 388.155 417.619 388.26 417.61Z" fill="#F0F0F0"/>
<path d="M401.19 412.45C401.29 412.449 401.388 412.421 401.472 412.368C401.557 412.315 401.626 412.24 401.67 412.15C401.697 412.089 401.71 412.024 401.709 411.957C401.708 411.891 401.693 411.826 401.665 411.766C401.636 411.706 401.595 411.653 401.544 411.611C401.493 411.568 401.434 411.537 401.37 411.52C394.89 409.16 388.17 411.75 387.88 411.86C387.817 411.88 387.76 411.914 387.711 411.959C387.663 412.003 387.625 412.058 387.599 412.118C387.573 412.179 387.561 412.245 387.563 412.31C387.565 412.376 387.581 412.441 387.61 412.5C387.683 412.618 387.795 412.707 387.926 412.751C388.058 412.795 388.201 412.791 388.33 412.74C388.4 412.74 394.93 410.21 400.96 412.41C401.033 412.439 401.111 412.452 401.19 412.45Z" fill="#F0F0F0"/>
<path d="M401.1 408C401.199 407.999 401.295 407.972 401.38 407.921C401.464 407.87 401.533 407.797 401.58 407.71C401.607 407.65 401.621 407.585 401.622 407.519C401.622 407.453 401.609 407.388 401.582 407.328C401.556 407.267 401.517 407.213 401.469 407.169C401.42 407.124 401.362 407.091 401.3 407.07C396.837 405.45 391.93 405.553 387.54 407.36C387.478 407.384 387.422 407.421 387.376 407.469C387.33 407.517 387.295 407.574 387.273 407.637C387.251 407.7 387.243 407.766 387.25 407.833C387.256 407.899 387.277 407.963 387.31 408.02C387.389 408.136 387.507 408.22 387.643 408.257C387.779 408.293 387.923 408.28 388.05 408.22C392.144 406.565 396.703 406.473 400.86 407.96C400.937 407.988 401.018 408.001 401.1 408Z" fill="#F0F0F0"/>
<path d="M401 403C401.098 403.001 401.194 402.976 401.279 402.926C401.363 402.877 401.433 402.806 401.48 402.72C401.509 402.66 401.524 402.595 401.526 402.529C401.527 402.462 401.514 402.396 401.487 402.336C401.461 402.275 401.421 402.22 401.372 402.176C401.322 402.132 401.263 402.099 401.2 402.08C394.54 399.44 387.63 402.37 387.34 402.5C387.279 402.523 387.223 402.56 387.177 402.606C387.131 402.653 387.095 402.709 387.072 402.77C387.05 402.832 387.04 402.898 387.045 402.963C387.05 403.029 387.069 403.092 387.1 403.15C387.175 403.269 387.29 403.356 387.424 403.397C387.558 403.437 387.702 403.428 387.83 403.37C387.9 403.37 394.57 400.5 400.76 402.96C400.837 402.988 400.918 403.001 401 403Z" fill="#EBEBEB"/>
<path d="M393.11 236.8C394.64 264.8 398.11 316.24 398.11 316.24C398.44 319.5 401.42 333.89 401.72 345.64C402.21 364.5 401.46 377.58 401.46 377.58C401.46 377.58 391.07 381.45 383.57 378.47C383.57 378.47 373.98 340.47 371.47 328.24C368.47 313.6 361.39 284.9 361.39 284.9L356.39 323.56C356.39 323.56 357.96 337.33 356.39 348.7C355.32 356.45 352.39 376.76 352.39 376.76C352.39 376.76 342.39 379.95 334.24 377.35C334.24 377.35 330.97 326.89 330.48 319.75C329.99 312.61 328.38 275.95 330.13 230.88L393.11 236.8Z" fill="#425660"/>
<path d="M361.38 284.9L357.2 259.9C351.977 259.593 347.025 257.47 343.2 253.9C343.2 253.9 343.85 259.67 355.02 263.37L358.85 284.16L356.39 323.61L361.38 284.9Z" fill="#37474F"/>
<path d="M338.65 154.89C330.56 155.83 327.24 161.69 322.75 170.83C319.17 178.11 312.16 194.55 312.16 194.55C312.16 194.55 290.25 189.04 286.35 186.55C283.67 184.86 284.17 183.78 279.75 180.92C276.64 178.92 273.33 177.92 271.39 175.92C269.84 174.35 267.39 176.86 269.86 180.23C270.641 181.181 271.512 182.055 272.46 182.84C270.842 182.516 269.29 181.921 267.87 181.08C264.36 178.57 262.81 175.37 258.48 174.86C256.65 174.64 256.29 175.91 256.97 177.32C256.69 177.445 256.439 177.628 256.233 177.857C256.028 178.086 255.873 178.355 255.779 178.647C255.685 178.94 255.653 179.248 255.686 179.554C255.719 179.859 255.816 180.154 255.97 180.42C254.91 180.72 254.83 182.83 255.23 183.42C254.69 184.2 253.79 186.48 257.78 190.9C259.826 193.047 262.11 194.953 264.59 196.58C267.771 197.555 271.007 198.343 274.28 198.94C277.924 199.548 281.469 200.645 284.82 202.2C289.65 204.2 301.87 210.53 312.71 214.56C321.71 217.91 324.26 212.76 328.53 204.75C331.36 199.46 337.95 181.94 337.95 181.94C341.33 171.47 341.78 161.36 338.65 154.89Z" fill="#FFA8A7"/>
<path d="M269.51 189.71C274.86 187.71 280.73 190.07 282.51 194.4C282.5 193.143 282.124 191.917 281.428 190.871C280.732 189.824 279.745 189.004 278.59 188.51C276.39 187.44 272.31 187.73 269.51 189.71Z" fill="#F28F8F"/>
<path d="M338 154.89C330.4 156.47 328.67 158.18 323.14 169.35C317.71 180.35 311.8 193.97 311.8 193.97L297.61 190.58C297.61 190.58 298.43 193.26 296.79 198.99C295.15 204.72 291.79 206.47 291.79 206.47C291.79 206.47 302.73 212.02 311.37 215.17C320.01 218.32 321.9 216.8 324.66 212.81C327.42 208.82 339.66 180.47 339.66 180.47C339.66 180.47 344.46 163.33 338 154.89Z" fill="#607E8C"/>
<path d="M298.36 190.77L292.58 189C293.081 191.603 292.971 194.287 292.26 196.84C290.57 202.7 287.59 204.53 287.59 204.53L293.37 207.39C293.37 207.39 299.76 200.11 298.36 190.77Z" fill="#37474F"/>
<path d="M333.47 174.46C334.76 165.11 338.99 152.23 353.47 151.66L369.17 152.86C373.77 154.06 390.95 159.39 390.95 159.39L392 196.74C392 196.74 393.15 220.68 392.8 236.33C379.41 244.82 348.61 247.88 330.31 234C329.78 221.08 332.2 183.72 333.47 174.46Z" fill="#F0F0F0"/>
<path d="M339.8 119.51C337.4 114.1 339.68 106.89 342.48 103.51C346.54 98.6 352.89 96.51 362.48 96.99C369.77 97.4 376.96 100.39 378.37 107.86C384.24 109.57 383.63 119.2 382.19 123.45C379.29 132.08 373.52 139.61 373.44 144.01L339.8 119.51Z" fill="#263238"/>
<path d="M339.92 139.77C341.1 143.92 343.52 146.95 347.37 147.53C349.389 147.72 351.421 147.72 353.44 147.53V153.11C347 162.29 367 163 373.85 153L373.68 135.9C373.68 135.9 376.05 138.56 379.91 136.01C381.467 134.842 382.574 133.172 383.042 131.283C383.51 129.393 383.312 127.4 382.48 125.64C380.54 121.64 376.7 123.29 375.48 124.53C374.26 125.77 373 128.1 372 127.78C371.429 127.61 370.911 127.299 370.492 126.876C370.072 126.453 369.766 125.932 369.6 125.36C368.684 122.843 368.24 120.178 368.29 117.5C367.25 116.983 366.322 116.266 365.56 115.39C363.89 113.56 363.74 111.39 363.66 109.39C355.34 106.84 344.75 107.96 341.31 110.65C339.31 114.16 339.31 122.3 339.02 126.99C338.607 131.27 338.911 135.59 339.92 139.77Z" fill="#FFA8A7"/>
<path d="M353.44 147.52C357.69 147.26 366.24 145.22 368.5 142.84C370.76 140.46 371.7 135.59 371.7 135.59C371.7 135.59 371.4 141.72 369.65 144.44C367.9 147.16 363.47 148.36 360.77 149.05C358.364 149.577 355.93 149.971 353.48 150.23L353.44 147.52Z" fill="#F28F8F"/>
<path d="M356 125.11C356.014 125.455 356.129 125.789 356.331 126.069C356.533 126.349 356.813 126.564 357.136 126.686C357.459 126.808 357.811 126.833 358.148 126.756C358.485 126.68 358.792 126.506 359.031 126.256C359.269 126.007 359.429 125.692 359.491 125.352C359.552 125.012 359.512 124.662 359.375 124.344C359.239 124.027 359.012 123.757 358.723 123.568C358.434 123.378 358.095 123.278 357.75 123.28C357.514 123.283 357.281 123.332 357.065 123.426C356.848 123.52 356.653 123.656 356.49 123.827C356.327 123.997 356.199 124.198 356.115 124.419C356.031 124.639 355.992 124.874 356 125.11Z" fill="#263238"/>
<path d="M342 120.93L346.27 120.21C346.236 119.93 346.146 119.66 346.004 119.416C345.862 119.172 345.673 118.959 345.446 118.791C345.22 118.622 344.962 118.502 344.687 118.436C344.413 118.371 344.128 118.362 343.85 118.41C343.279 118.515 342.769 118.835 342.425 119.303C342.081 119.771 341.929 120.353 342 120.93Z" fill="#263238"/>
<path d="M356.72 120.21L360.84 121.52C360.939 121.256 360.982 120.974 360.969 120.693C360.955 120.411 360.885 120.135 360.761 119.882C360.638 119.628 360.464 119.403 360.251 119.218C360.037 119.034 359.789 118.895 359.52 118.81C358.963 118.642 358.362 118.693 357.842 118.954C357.321 119.214 356.92 119.663 356.72 120.21Z" fill="#263238"/>
<path d="M342.62 124.85C342.636 125.195 342.752 125.527 342.955 125.806C343.159 126.085 343.439 126.298 343.762 126.419C344.086 126.539 344.437 126.563 344.773 126.485C345.11 126.408 345.416 126.233 345.653 125.983C345.891 125.733 346.05 125.419 346.111 125.079C346.171 124.739 346.131 124.389 345.994 124.072C345.857 123.756 345.63 123.486 345.342 123.297C345.053 123.108 344.715 123.008 344.37 123.01C343.895 123.026 343.446 123.227 343.118 123.572C342.791 123.916 342.612 124.375 342.62 124.85Z" fill="#263238"/>
<path d="M351.56 121.14L350.36 133.76L343.58 131.76L351.56 121.14Z" fill="#F28F8F"/>
<path d="M356.86 135.1C357.139 135.862 357.112 136.702 356.787 137.445C356.461 138.188 355.862 138.777 355.113 139.089C354.364 139.401 353.523 139.412 352.766 139.12C352.01 138.828 351.395 138.254 351.05 137.52L356.86 135.1Z" fill="#B16668"/>
<path d="M356.36 136.79C355.628 136.784 354.918 137.046 354.365 137.527C353.813 138.007 353.455 138.674 353.36 139.4C353.972 139.516 354.605 139.45 355.18 139.21C355.664 139.009 356.09 138.689 356.419 138.28C356.747 137.871 356.968 137.386 357.06 136.87C356.83 136.817 356.596 136.79 356.36 136.79Z" fill="#F28F8F"/>
<path d="M329.94 187.37C331.64 171.71 333.63 160.5 337.94 154.89C337.94 154.89 341.72 153.73 353.45 150.67V151.67C351.949 152.844 350.655 154.26 349.62 155.86C347.71 158.74 345.43 163.64 343.21 172.09C340.21 183.6 338.66 209.24 338.51 223.09C338.36 236.94 337.74 253.43 337.74 253.43C337.74 253.43 330.74 252 328.13 248.43C328.16 248.44 328.65 199.16 329.94 187.37Z" fill="#355E74"/>
<path d="M368 170.61C369.49 164.3 372.26 154.33 373.64 151.12L391.21 157.43C396.03 159.65 399.8 163.23 398.59 171.34L393.54 207L394.78 247.71C387.31 259.32 363.54 258.31 363.54 258.31C363.54 258.31 363.14 246.39 363.86 214.46C364.26 196.57 366.14 178.66 368 170.61Z" fill="#355E74"/>
<path d="M366.74 177.69C368.082 167.84 370.452 158.157 373.81 148.8V146.17C373.81 146.17 381.95 150.38 385.41 152.38C387.348 153.403 388.923 154.999 389.92 156.95L383.29 154.57C383.29 154.57 380.09 155.76 376.17 160.26C372.25 164.76 366.74 177.69 366.74 177.69Z" fill="#607E8C"/>
<path d="M353.48 148.8V153.11C350.583 156.072 348.257 159.544 346.62 163.35C344.762 168.013 343.248 172.806 342.09 177.69C340.964 172.254 341.084 166.633 342.44 161.25C343.91 155.7 345.51 153.8 346.63 152.58C348.593 150.498 350.913 148.785 353.48 147.52V148.8Z" fill="#607E8C"/>
<path d="M411.94 244.79C413.29 238.41 415.36 232.59 416.36 227.01C418.81 213.29 418.66 212.2 417.47 206.42C414.03 189.69 411.74 181.09 408.86 172.69C404.97 161.31 403.68 161.13 391.69 157.94C386.42 162.86 386.69 177.54 390.07 185.52C393.91 197.39 398.99 215.05 398.99 215.05C398.78 217.82 398.65 235.57 396.75 243.56C396.1 246.31 394.22 247.44 392.63 248.37C389.63 250.12 388.41 254.27 386.21 256.57C384.48 258.36 383.14 258.95 383.36 259.52C383.65 260.25 385.07 260.73 387.2 260.17C388.653 259.785 390.003 259.082 391.15 258.11C391.664 257.557 392.226 257.052 392.83 256.6C393.78 256.07 393.83 257.01 393.74 257.69C393.533 258.892 393.17 260.062 392.66 261.17C391.921 263.088 391.049 264.953 390.05 266.75C389.13 268.4 388.14 269.16 386.54 271.17C385.61 272.33 384.32 273.44 383.91 274.87C383.63 275.87 383.58 277.44 384.77 277.87C385.32 278.05 386.04 277.39 386.49 277.11C386.94 276.83 387.71 276.05 388.41 275.93C389.067 275.92 389.722 276.014 390.35 276.21C391.359 276.362 392.391 276.259 393.35 275.91C393.798 275.745 394.209 275.493 394.56 275.17C394.7 274.991 394.865 274.833 395.05 274.7C395.68 274.44 396.65 274.7 397.33 274.49C398.94 274.05 399.82 272.49 401.33 271.87C402.185 271.522 402.978 271.04 403.68 270.44C404.727 269.54 405.605 268.46 406.27 267.25C408.42 262.74 410.68 256.85 411.07 251.86C411.2 249.66 411.54 247.23 411.94 244.79Z" fill="#FFA8A7"/>
<path d="M391.06 157.43C398.33 159.34 402.2 159.71 405.32 163.69C408.44 167.67 412.32 182.69 414.12 189.3C415.92 195.91 418.25 207.2 418.62 209.3C418.99 211.4 418.9 213.86 417.81 220.44C416.56 227.95 413.99 240.44 413.99 240.44C413.99 240.44 412.15 241.01 405.99 239.76C403.057 239.221 400.159 238.51 397.31 237.63L398.53 215L388.19 183.12C388.19 183.12 383 164.42 391.06 157.43Z" fill="#607E8C"/>
<path d="M397.45 233.46L397.13 239.57C397.13 239.57 399.13 242.15 405.19 243.29C410.49 244.29 413.71 242.11 413.71 242.11L414.93 236.11C412.045 237.221 408.906 237.502 405.87 236.92C399.65 235.94 397.45 233.46 397.45 233.46Z" fill="#37474F"/>
<path d="M276.16 189C276.047 188.937 275.919 188.906 275.79 188.91H275V202.76L283.16 194C283.23 193.918 283.282 193.821 283.311 193.716C283.34 193.612 283.345 193.502 283.327 193.396C283.309 193.289 283.267 193.187 283.206 193.098C283.144 193.009 283.064 192.935 282.97 192.88L276.16 189Z" fill="#355E74"/>
<path opacity="0.3" d="M276.16 189C276.047 188.937 275.919 188.906 275.79 188.91H275V202.76L283.16 194C283.23 193.918 283.282 193.821 283.311 193.716C283.34 193.612 283.345 193.502 283.327 193.396C283.309 193.289 283.267 193.187 283.206 193.098C283.144 193.009 283.064 192.935 282.97 192.88L276.16 189Z" fill="white"/>
<path d="M283.13 194L275 202.77V192.77H282.6C282.74 192.775 282.877 192.819 282.993 192.898C283.109 192.977 283.2 193.088 283.255 193.217C283.311 193.346 283.329 193.488 283.307 193.627C283.284 193.765 283.223 193.895 283.13 194Z" fill="#355E74"/>
<path d="M275 184.58C274.939 183.468 274.616 182.386 274.058 181.421C273.5 180.457 272.723 179.638 271.79 179.03C270.796 178.527 269.698 178.265 268.585 178.265C267.471 178.265 266.374 178.527 265.38 179.03L180 228.28C179.067 228.888 178.29 229.707 177.732 230.671C177.174 231.636 176.851 232.718 176.79 233.83V261.3C176.85 262.414 177.172 263.498 177.73 264.464C178.287 265.43 179.065 266.251 180 266.86C180.991 267.37 182.09 267.637 183.205 267.637C184.32 267.637 185.419 267.37 186.41 266.86L272.02 217.4C274.9 215.76 274.93 214.11 274.93 212.07L275 184.58Z" fill="#355E74"/>
<path opacity="0.2" d="M176.83 261.3C176.89 262.414 177.212 263.498 177.77 264.464C178.327 265.43 179.105 266.251 180.04 266.86C180.942 267.319 181.93 267.58 182.941 267.627C183.951 267.673 184.96 267.504 185.9 267.13C184.39 267.7 183.24 266.84 183.24 265.01V237.53C183.279 236.414 183.602 235.326 184.18 234.37L177.77 230.67C177.194 231.626 176.87 232.714 176.83 233.83V261.3Z" fill="black"/>
<path opacity="0.3" d="M274.86 183.67C274.49 182.31 273.25 181.88 271.77 182.73L186.45 232C185.5 232.585 184.721 233.409 184.19 234.39L177.78 230.7C178.317 229.721 179.095 228.895 180.04 228.3L265.34 179C266.335 178.497 267.435 178.235 268.55 178.235C269.665 178.235 270.765 178.497 271.76 179C272.567 179.526 273.259 180.212 273.792 181.015C274.325 181.818 274.688 182.722 274.86 183.67Z" fill="white"/>
<path d="M196.78 237.35C196.559 237.352 196.343 237.28 196.167 237.145C195.991 237.011 195.864 236.822 195.807 236.608C195.75 236.394 195.765 236.168 195.851 235.963C195.936 235.759 196.087 235.589 196.28 235.48L261.28 197.96C261.509 197.84 261.774 197.814 262.022 197.886C262.27 197.958 262.48 198.122 262.609 198.346C262.738 198.569 262.776 198.833 262.715 199.084C262.653 199.335 262.498 199.552 262.28 199.69L197.28 237.22C197.128 237.306 196.955 237.351 196.78 237.35Z" fill="#0E3143"/>
<path d="M196.78 244.68C196.559 244.682 196.343 244.61 196.167 244.475C195.991 244.341 195.864 244.152 195.807 243.938C195.75 243.724 195.765 243.498 195.851 243.293C195.936 243.089 196.087 242.919 196.28 242.81L261.28 205.36C261.51 205.23 261.781 205.195 262.036 205.265C262.291 205.334 262.508 205.501 262.64 205.73C262.771 205.958 262.807 206.229 262.74 206.484C262.672 206.739 262.507 206.956 262.28 207.09L197.28 244.55C197.128 244.636 196.955 244.681 196.78 244.68Z" fill="#0E3143"/>
<path d="M196.78 252.06C196.559 252.062 196.343 251.99 196.167 251.855C195.991 251.721 195.864 251.532 195.807 251.318C195.75 251.104 195.765 250.878 195.851 250.673C195.936 250.469 196.087 250.299 196.28 250.19L261.28 212.74C261.51 212.61 261.781 212.575 262.036 212.645C262.291 212.714 262.508 212.881 262.64 213.11C262.771 213.338 262.807 213.609 262.74 213.864C262.672 214.119 262.507 214.336 262.28 214.47L197.28 251.93C197.128 252.016 196.955 252.061 196.78 252.06Z" fill="#0E3143"/>
</svg>
