<svg width="54" height="60" viewBox="0 0 54 60" fill="none" xmlns="http://www.w3.org/2000/svg">
<path d="M27.7182 0C28.4228 0.156576 29.1274 0.26618 29.8163 0.469729C35.1869 1.97286 38.9604 7.21816 38.5689 12.62C38.1305 18.6326 33.8247 23.2985 28.0314 24.0188C21.5491 24.833 15.6775 20.3392 14.6284 13.7787C13.6263 7.5 18.0105 1.39353 24.3518 0.203549C24.6963 0.140919 25.0408 0.0626305 25.3696 0C26.1681 0 26.9353 0 27.7182 0ZM26.5595 21.7484C31.8831 21.7328 36.2359 17.38 36.2516 12.0564C36.2516 6.70146 31.8675 2.33299 26.5126 2.34864C21.189 2.3643 16.8362 6.74843 16.8518 12.072C16.8675 17.3956 21.2359 21.7484 26.5595 21.7484Z" fill="#81D100"/>
<path d="M50.4687 38.1263C50.4687 38.4395 50.4687 38.6587 50.4687 38.8935C50.4687 45.3914 50.4687 51.905 50.4687 58.4029C50.4687 59.6555 50.1086 60 48.8717 60C33.9969 60 19.1065 60 4.23179 60C2.99484 60 2.63471 59.6399 2.63471 58.3873C2.63471 51.8893 2.63471 45.3758 2.63471 38.8779C2.63471 38.643 2.63471 38.4238 2.63471 38.1106C2.14933 38.1106 1.72657 38.1263 1.30381 38.1106C0.20778 38.0793 -0.308921 37.2651 0.192123 36.263C1.53868 33.6326 2.88523 31.0021 4.23179 28.3559C4.51363 27.7923 4.95204 27.5417 5.594 27.5417C8.52198 27.5574 11.45 27.5417 14.3779 27.5417C25.3539 27.5417 36.3299 27.5418 47.3059 27.5261C48.1358 27.5261 48.6368 27.8236 49.0126 28.5595C50.2652 31.096 51.5648 33.6012 52.8487 36.1221C53.4594 37.3278 52.974 38.1106 51.6274 38.1263C51.2516 38.1263 50.8758 38.1263 50.4687 38.1263ZM5.01467 38.1263C5.01467 44.6868 5.01467 51.1534 5.01467 57.6044C11.8257 57.6044 18.5898 57.6044 25.3696 57.6044C25.3696 55.4593 25.3696 53.3768 25.3696 51.2944C25.3696 50.4958 25.855 49.9948 26.5596 50.0104C27.2485 50.0261 27.7026 50.5115 27.7026 51.2944C27.7182 52.5626 27.7026 53.8309 27.7026 55.0992C27.7026 55.929 27.7026 56.7745 27.7026 57.62C34.5293 57.62 41.2934 57.62 48.0575 57.62C48.0575 51.1221 48.0575 44.6399 48.0575 38.1263C47.7913 38.1263 47.5564 38.1263 47.3216 38.1263C42.0293 38.1263 36.737 38.095 31.4447 38.142C30.3644 38.1576 29.7381 37.8131 29.331 36.8267C28.8925 35.7933 28.3289 34.8225 27.8278 33.8361C27.7965 33.8518 27.7495 33.8518 27.7182 33.8674C27.7182 34.0553 27.7182 34.2432 27.7182 34.4311C27.7182 36.3257 27.7182 38.2202 27.7182 40.1148C27.7182 40.2557 27.7182 40.381 27.7182 40.5219C27.7026 41.2735 27.2172 41.7902 26.5439 41.8058C25.8863 41.8058 25.3696 41.2735 25.3696 40.5376C25.3539 38.4708 25.3696 36.404 25.3696 34.3215C25.3696 34.1649 25.3539 34.0083 25.3226 33.7109C24.712 34.9165 24.117 35.9499 23.6316 37.0459C23.2558 37.8758 22.6921 38.1576 21.7996 38.1576C16.4447 38.1263 11.0898 38.142 5.75058 38.142C5.53137 38.1263 5.29651 38.1263 5.01467 38.1263ZM24.6024 29.906C24.4145 29.8904 24.2892 29.8747 24.1483 29.8747C18.2767 29.8747 12.3894 29.8747 6.5178 29.8591C6.15768 29.8591 6.0011 30 5.86018 30.2818C5.01467 31.9572 4.16916 33.6169 3.32365 35.2923C3.26102 35.4175 3.21404 35.5584 3.15141 35.7307C3.27667 35.7463 3.35496 35.762 3.43325 35.762C9.36749 35.762 15.3017 35.762 21.236 35.7463C21.4395 35.7463 21.737 35.5428 21.831 35.3549C22.7078 33.6795 23.5689 31.9885 24.4145 30.3131C24.4771 30.2035 24.5241 30.0939 24.6024 29.906ZM28.4854 29.8904C28.6107 30.1566 28.689 30.3288 28.7673 30.501C29.5658 32.0825 30.3957 33.6482 31.1629 35.2453C31.3664 35.6524 31.5857 35.7933 32.0554 35.7933C37.8174 35.7777 43.5794 35.7777 49.3414 35.7777C49.5293 35.7777 49.7172 35.7777 49.9834 35.7777C49.8738 35.5271 49.7955 35.3549 49.7172 35.1827C48.903 33.5856 48.0731 31.9885 47.2902 30.3758C47.1024 30 46.8831 29.8591 46.4447 29.8591C41.309 29.8747 36.1733 29.8747 31.0376 29.8747C30.2234 29.8904 29.4092 29.8904 28.4854 29.8904Z" fill="white"/>
<path d="M9.75892 6.45093C9.77458 7.51565 8.89775 8.1263 8.13053 7.75052C6.37688 6.87369 4.63888 5.94989 2.91654 5.01043C2.35287 4.69728 2.19629 4.024 2.47813 3.47599C2.75997 2.92797 3.40193 2.66179 3.98126 2.95928C5.73492 3.85177 7.47291 4.75991 9.19525 5.71503C9.47709 5.88726 9.63366 6.29436 9.75892 6.45093Z" fill="white"/>
<path d="M3.62116 21.2317C2.99485 21.2474 2.54078 20.9186 2.39986 20.4019C2.22763 19.8225 2.46249 19.3058 3.04183 18.9927C4.65456 18.1315 6.2673 17.286 7.89569 16.4248C8.00529 16.3779 8.09924 16.3152 8.20884 16.2839C8.77252 16.1117 9.35185 16.3465 9.60237 16.8476C9.88421 17.3799 9.75895 18.0532 9.22659 18.3351C7.47293 19.3058 5.68796 20.214 3.91865 21.1378C3.82471 21.2161 3.66813 21.2161 3.62116 21.2317Z" fill="white"/>
<path d="M49.4353 21.2317C49.3414 21.2004 49.1222 21.1534 48.9186 21.0438C47.3059 20.1983 45.7088 19.3685 44.0961 18.5073C43.3758 18.1315 43.1566 17.4739 43.4854 16.8476C43.7986 16.2526 44.4719 16.0647 45.1608 16.4092C46.8049 17.2547 48.4489 18.1315 50.0773 18.9927C50.641 19.2902 50.8445 19.7912 50.7036 20.3706C50.5783 20.8873 50.1086 21.2317 49.4353 21.2317Z" fill="white"/>
<path d="M44.6284 7.86013C43.9708 7.87579 43.5167 7.53132 43.3758 6.96765C43.2349 6.45095 43.4541 5.93424 43.9865 5.65241C45.1138 5.04176 46.2568 4.44677 47.3998 3.85178C47.9322 3.56994 48.4645 3.27245 48.9969 3.00627C49.6545 2.69312 50.2965 2.89667 50.594 3.476C50.8915 4.05533 50.7036 4.72861 50.0773 5.07308C48.4019 5.98122 46.7109 6.85804 45.0199 7.73487C44.879 7.81316 44.7067 7.82882 44.6284 7.86013Z" fill="white"/>
<path d="M47.0554 10.8821C47.8696 10.8821 48.6995 10.8664 49.5136 10.8821C50.2496 10.8977 50.7349 11.3518 50.7506 12.0094C50.7663 12.667 50.2965 13.1994 49.5763 13.215C47.9009 13.2464 46.2255 13.2464 44.5502 13.215C43.8299 13.1994 43.3445 12.6827 43.3445 12.0407C43.3445 11.3831 43.8612 10.8977 44.6128 10.8821C45.427 10.8664 46.2412 10.8821 47.0554 10.8821Z" fill="white"/>
<path d="M6.04806 10.8821C6.86225 10.8821 7.69211 10.8664 8.5063 10.8821C9.25787 10.8977 9.77457 11.3831 9.77457 12.0407C9.77457 12.6827 9.27352 13.1994 8.55327 13.215C6.89357 13.2464 5.23386 13.2307 3.58981 13.215C2.83824 13.1994 2.3372 12.6827 2.36852 12.0094C2.38417 11.3518 2.86956 10.8977 3.60547 10.8821C4.40401 10.8664 5.2182 10.8821 6.04806 10.8821Z" fill="white"/>
<path d="M25.0251 13.8883C26.356 12.3069 27.6399 10.7568 28.9239 9.22234C29.3153 8.75261 29.6911 8.28288 30.0982 7.82881C30.5836 7.28079 31.2569 7.2025 31.7579 7.6096C32.2746 8.03236 32.3529 8.75261 31.8832 9.33194C29.9573 11.6493 28.0314 13.9509 26.0898 16.2526C25.5888 16.8476 24.9468 16.8789 24.3362 16.3779C23.3498 15.548 22.3633 14.7182 21.3926 13.8726C20.7976 13.3559 20.7193 12.6357 21.189 12.119C21.6431 11.6023 22.3007 11.5866 22.9113 12.0877C23.6003 12.667 24.2892 13.262 25.0251 13.8883Z" fill="#81D100"/>
<path d="M13.141 53.5804C12.0919 53.5804 11.0272 53.5804 9.97815 53.5804C9.21093 53.5804 8.69423 53.1263 8.67857 52.453C8.66291 51.7484 9.17961 51.2474 9.97815 51.2474C12.1232 51.2317 14.2683 51.2317 16.4134 51.2474C17.1807 51.2474 17.666 51.7328 17.666 52.4217C17.666 53.1107 17.1807 53.5804 16.4134 53.5804C15.3331 53.5804 14.237 53.5804 13.141 53.5804Z" fill="white"/>
<path d="M26.5752 44.7495C27.2172 44.7651 27.7182 45.2662 27.7182 45.8925C27.7182 46.5344 27.1702 47.0824 26.5283 47.0668C25.902 47.0511 25.3853 46.5344 25.3853 45.9081C25.3853 45.2505 25.902 44.7338 26.5752 44.7495Z" fill="white"/>
</svg>
