<svg width="50" height="60" viewBox="0 0 50 60" fill="none" xmlns="http://www.w3.org/2000/svg">
<path d="M41.4232 0C42.0107 0.352507 42.231 0.851891 42.2751 1.54222C42.422 4.43571 44.8895 6.87388 47.783 7.02075C48.9139 7.07951 49.2811 7.46139 49.2811 8.57766C49.2811 14.7759 49.3105 20.9741 49.2811 27.1724C49.2371 35.7353 46.4611 43.2995 40.8504 49.7769C36.6056 54.6679 31.3033 58.0314 25.1051 59.9408C24.8113 60.0289 24.4441 60.0142 24.1357 59.9261C16.0868 57.3851 9.75635 52.5822 5.23252 45.4586C2.44184 41.0523 0.752748 36.2347 0.253364 31.0353C0.106486 29.4784 0.0330475 27.9215 0.0183597 26.3499C-0.0110158 20.4748 0.00367194 14.585 0.00367194 8.70985C0.00367194 7.4467 0.312115 7.10888 1.56058 7.03544C4.43938 6.8445 6.87755 4.40633 7.02443 1.54222C7.0538 0.851891 7.27412 0.352507 7.86163 0C19.0537 0 30.2311 0 41.4232 0ZM2.35372 9.31205C2.35372 9.59111 2.35372 9.81143 2.35372 10.0464C2.35372 15.3193 2.33903 20.6069 2.3684 25.8799C2.38309 27.5983 2.44184 29.3168 2.60341 31.0353C2.91185 34.2225 3.79312 37.2776 5.08564 40.2151C7.00974 44.5774 9.80042 48.3081 13.3989 51.4219C16.6302 54.2126 20.3022 56.2395 24.3707 57.5614C24.5763 57.6201 24.8407 57.5907 25.0463 57.5173C26.3095 57.0326 27.5873 56.592 28.7917 56.0338C34.4465 53.39 38.9409 49.395 42.2163 44.0927C45.4329 38.8932 46.9311 33.1944 46.9311 27.0989C46.9311 21.3854 46.9311 15.6865 46.9311 9.973C46.9311 9.76737 46.9311 9.54705 46.9311 9.34142C43.0682 8.51891 40.7622 6.19824 39.9544 2.39411C29.717 2.39411 19.509 2.39411 9.31572 2.39411C8.50789 6.19824 6.20191 8.48953 2.35372 9.31205Z" fill="white"/>
<path d="M44.4929 20.9741C44.4929 23.7942 44.6398 26.6142 44.4635 29.4196C44.067 35.941 41.6729 41.6986 37.384 46.6484C34.094 50.4525 30.0401 53.1697 25.3401 54.9323C24.8554 55.1085 24.4147 55.1232 23.93 54.9323C18.3193 52.8319 13.722 49.4097 10.2117 44.548C7.61192 40.9495 5.89345 36.9397 5.18844 32.5628C4.89469 30.7709 4.74781 28.9496 4.71843 27.143C4.65968 22.1932 4.70375 17.2581 4.68906 12.3084C4.68906 11.5152 4.98281 11.0305 5.68783 10.7074C7.96443 9.62049 9.65352 7.9314 10.7257 5.6548C11.0489 4.96447 11.5189 4.67072 12.2826 4.67072C14.7649 4.70009 17.2471 4.6854 19.7293 4.6854C20.2728 4.6854 20.7428 4.84697 20.9925 5.36104C21.1981 5.78699 21.1981 6.27168 20.8456 6.55075C20.5225 6.80044 20.0525 7.00607 19.6559 7.00607C17.5262 7.05013 15.3964 7.03545 13.2667 7.02076C12.8408 7.02076 12.6058 7.13826 12.4001 7.52014C11.2398 9.60581 9.60946 11.2215 7.5238 12.3818C7.17129 12.5874 7.0391 12.7931 7.0391 13.2043C7.05379 17.831 7.0391 22.4723 7.05379 27.0989C7.06848 34.2372 9.37446 40.5089 14.2361 45.7818C17.0562 48.8515 20.4784 51.0841 24.3707 52.5675C24.5322 52.6263 24.7526 52.6263 24.9141 52.5675C30.2311 50.5112 34.5199 47.1771 37.7072 42.433C39.9691 39.0695 41.3644 35.3682 41.9372 31.3731C42.1282 29.9777 42.2163 28.5677 42.231 27.1724C42.2604 22.5164 42.2457 17.8603 42.2457 13.219C42.2457 12.8224 42.1429 12.6021 41.7757 12.3965C39.6753 11.2361 38.045 9.59112 36.87 7.49077C36.679 7.15295 36.4881 7.03545 36.0915 7.03545C33.9618 7.05013 31.8321 7.05013 29.7023 7.03545C29.4673 7.03545 29.2323 7.02076 29.012 6.96201C28.4832 6.81513 28.2042 6.41856 28.1748 5.8898C28.1454 5.37573 28.5126 4.90572 29.0267 4.77353C29.247 4.71478 29.4967 4.70009 29.717 4.70009C32.1405 4.70009 34.564 4.71478 36.9875 4.6854C37.7512 4.67072 38.2359 4.96447 38.5591 5.6548C39.6313 7.94609 41.335 9.64987 43.641 10.7221C44.3314 11.0452 44.5957 11.5446 44.5957 12.2937C44.5664 15.1872 44.581 18.0806 44.581 20.9741C44.5517 20.9741 44.5223 20.9741 44.4929 20.9741Z" fill="white"/>
<path d="M35.1956 27.6571C35.2103 33.4587 30.4661 38.2176 24.6644 38.2323C18.8628 38.247 14.1039 33.5028 14.0892 27.7011C14.0745 21.8995 18.8187 17.1406 24.6204 17.1259C30.422 17.1113 35.1809 21.8554 35.1956 27.6571ZM24.6204 35.8969C29.1295 35.9116 32.8308 32.225 32.8455 27.7011C32.8602 23.192 29.1736 19.4907 24.6497 19.476C20.1406 19.4613 16.4393 23.1479 16.4246 27.6718C16.4246 32.1662 20.1112 35.8822 24.6204 35.8969Z" fill="#81D100"/>
<path d="M24.6351 7.02074C24.0182 7.02074 23.4747 6.47729 23.4747 5.86041C23.4747 5.24352 24.0329 4.70007 24.6351 4.70007C25.252 4.70007 25.8101 5.25821 25.7954 5.86041C25.7954 6.49198 25.2666 7.02074 24.6351 7.02074Z" fill="white"/>
<path d="M23.4307 29.5812C24.8113 28.1858 26.1039 26.8933 27.4111 25.6008C27.7489 25.2483 28.0867 24.8958 28.4539 24.5726C29.0414 24.0439 29.7024 24.0439 30.1724 24.5432C30.6277 25.0279 30.6277 25.6742 30.0989 26.2177C29.2177 27.1283 28.307 28.0242 27.4111 28.9202C26.4417 29.8896 25.487 30.859 24.5029 31.8137C23.7685 32.5481 23.1663 32.5481 22.4319 31.8284C21.7563 31.1674 21.0953 30.5065 20.4491 29.8455C19.8322 29.214 19.7881 28.553 20.3169 28.0389C20.8309 27.5249 21.4919 27.5836 22.1235 28.2005C22.5494 28.6264 22.9607 29.0818 23.4307 29.5812Z" fill="#81D100"/>
</svg>
