<svg width="60" height="60" viewBox="0 0 60 60" fill="none" xmlns="http://www.w3.org/2000/svg">
<path d="M7.00994 31.052C7.00994 29.7169 7.01934 28.4006 7.00994 27.0937C6.99113 24.715 7.03814 22.3457 7.58346 20.0139C8.14759 17.5976 9.05959 15.3411 10.3289 13.2162C10.4793 12.953 10.5545 12.5957 10.5357 12.2948C10.3759 10.2734 10.7708 8.49638 12.3597 7.02966C18.5369 1.31319 25.7671 -0.952714 34.0879 0.363578C38.8642 1.11574 42.9729 3.27822 46.6115 6.43733C48.3039 7.90405 49.0184 9.68104 48.8868 11.8529C48.8398 12.5487 49.009 13.1222 49.3475 13.7239C49.9399 14.7958 50.4382 15.9146 50.9271 17.0429C51.2467 17.7762 50.9647 18.4532 50.3159 18.6976C49.6672 18.9421 49.0561 18.6224 48.7458 17.8703C48.5107 17.3155 48.2757 16.7608 48.0312 16.2061C47.9748 16.0745 47.8996 15.9522 47.815 15.7924C47.5987 15.9334 47.4107 16.0839 47.1944 16.1967C46.3953 16.601 45.5867 16.3283 44.9756 15.3975C43.7721 13.5641 42.3336 11.9752 40.5942 10.6495C32.5742 4.5099 20.6618 6.44673 14.9923 14.824C14.9077 14.9462 14.8325 15.0684 14.7479 15.1907C13.7888 16.6104 13.0273 16.7514 11.6546 15.7548C9.24763 20.0421 9.22883 24.715 9.40747 29.5194C9.84937 29.5194 10.3007 29.5194 10.752 29.5194C13.2341 29.5382 15.0111 31.2024 15.0299 33.6846C15.0769 37.9531 15.0769 42.2311 15.0299 46.4996C15.0017 48.9724 13.2059 50.6553 10.7426 50.6647C10.075 50.6647 9.40747 50.6647 8.73992 50.6647C7.41423 50.6647 7.14156 50.4297 6.96292 49.0852C4.65001 48.6057 2.82601 47.3646 1.49091 45.3902C0.259238 43.5662 -0.0792369 41.5259 0.014784 39.3728C0.174619 35.3769 2.92003 31.9076 7.00994 31.052ZM13.1495 13.282C17.3428 7.77242 22.8054 4.75435 29.7066 4.72615C36.6265 4.69794 42.1173 7.6878 46.4141 13.2726C46.4799 12.5957 46.5551 12.088 46.5645 11.5709C46.5833 10.2828 46.1884 9.22034 45.173 8.31774C41.525 5.05522 37.3223 3.01497 32.4426 2.48845C25.3534 1.72688 19.2138 3.85175 14.0145 8.70323C12.7828 9.85028 12.4725 11.6085 13.1495 13.282ZM9.39807 31.8324C9.39807 37.3608 9.39807 42.7952 9.39807 48.286C9.84937 48.286 10.2631 48.286 10.6767 48.286C11.993 48.2766 12.7076 47.562 12.7076 46.2269C12.717 44.6662 12.7076 43.1055 12.7076 41.5447C12.7076 39.0061 12.7076 36.4676 12.7076 33.929C12.7076 32.5563 12.0118 31.8606 10.6391 31.8324C10.2443 31.823 9.84937 31.8324 9.39807 31.8324ZM6.98173 33.5529C4.5842 33.8162 2.38411 36.7496 2.3559 39.6925C2.31829 43.2371 4.32094 46.2364 6.98173 46.5842C6.98173 42.2405 6.98173 37.8967 6.98173 33.5529Z" fill="white"/>
<path d="M52.3938 49.104C52.3562 50.3921 52.1211 51.652 51.4442 52.7896C50.2783 54.7735 48.4167 55.7795 46.2542 56.0992C44.3738 56.3812 42.4464 56.3812 40.5378 56.4658C39.5787 56.5128 38.6197 56.4846 37.6607 56.4658C37.3222 56.4564 37.1624 56.5505 37.0402 56.8983C36.382 58.8258 34.8119 59.9634 32.7998 59.9822C30.722 60.001 28.6347 60.0104 26.5475 59.9822C24.2157 59.9446 22.4481 58.3274 22.1473 56.0145C21.884 53.9555 23.2849 51.8964 25.3722 51.3417C25.8329 51.2195 26.3124 51.1725 26.7919 51.1725C28.7287 51.1537 30.6656 51.1631 32.6024 51.1631C34.5486 51.1725 35.9871 52.0092 36.8709 53.7768C36.9462 53.9273 37.153 54.1153 37.294 54.1153C40.0394 54.0589 42.7849 54.0307 45.5209 53.8615C46.7713 53.7862 47.9654 53.2879 48.8492 52.3195C49.2535 51.8776 49.5355 51.3135 49.9774 50.6365C49.3287 50.6365 48.9056 50.6459 48.4825 50.6365C46.2072 50.5989 44.3738 48.8313 44.355 46.556C44.3268 42.2217 44.3268 37.8873 44.355 33.5624C44.3738 31.3059 46.179 29.5477 48.4261 29.5007C48.9244 29.4912 49.4227 29.5007 50.0151 29.5007C50.0151 29.0211 50.0151 28.5981 50.0151 28.1656C50.0151 27.8553 50.0057 27.5356 50.0433 27.2253C50.1185 26.586 50.6356 26.1535 51.2279 26.1723C51.8391 26.2005 52.3186 26.6612 52.3374 27.3006C52.3656 28.3818 52.3562 29.463 52.3468 30.5537C52.3374 30.9298 52.4314 31.0802 52.8357 31.1742C56.6247 32.1238 59.2385 35.4898 59.3701 39.4105C59.4548 41.9678 58.9188 44.2807 57.2171 46.2552C56.0888 47.5997 55.0452 48.2202 52.3938 49.104ZM49.9774 48.2672C49.9774 42.7482 49.9774 37.3138 49.9774 31.8324C49.5826 31.8324 49.2535 31.8324 48.9244 31.8324C47.3637 31.8418 46.7149 32.4811 46.7149 34.0231C46.7149 36.7309 46.7149 39.4387 46.7149 42.1465C46.7149 43.585 46.7055 45.0235 46.7243 46.4526C46.7337 47.3928 47.3543 48.1544 48.2193 48.2484C48.7928 48.3142 49.3757 48.2672 49.9774 48.2672ZM52.4126 46.603C55.2426 46.0671 57.17 43.1337 57.0478 39.6173C56.9444 36.6368 54.8007 33.8068 52.4126 33.5435C52.4126 37.8873 52.4126 42.2311 52.4126 46.603ZM29.6689 57.6411C30.6844 57.6411 31.7092 57.6505 32.7246 57.6411C33.9939 57.6317 34.9153 56.7573 34.9247 55.582C34.9247 54.3974 34.0033 53.523 32.734 53.5136C30.7126 53.5042 28.7005 53.5042 26.6791 53.5136C25.4004 53.523 24.4884 54.388 24.479 55.5726C24.479 56.7573 25.391 57.6223 26.6697 57.6411C27.6663 57.6505 28.6723 57.6411 29.6689 57.6411Z" fill="white"/>
<path d="M52.2246 22.3927C52.2434 23.032 51.698 23.5961 51.0587 23.5961C50.4476 23.5961 49.9022 23.0602 49.8834 22.4491C49.8646 21.8379 50.3724 21.2926 50.9929 21.2644C51.651 21.2268 52.2058 21.7439 52.2246 22.3927Z" fill="white"/>
<path d="M40.1064 32.5312C40.121 38.3328 35.3769 43.0917 29.5752 43.1064C23.7736 43.121 19.0147 38.3769 19 32.5752C18.9853 26.7736 23.7295 22.0147 29.5312 22C35.3328 21.9853 40.0917 26.7295 40.1064 32.5312ZM29.5312 40.771C34.0403 40.7857 37.7416 37.0991 37.7563 32.5752C37.771 28.0661 34.0844 24.3648 29.5605 24.3501C25.0514 24.3354 21.3501 28.022 21.3354 32.5459C21.3354 37.0403 25.022 40.7563 29.5312 40.771Z" fill="#81D100"/>
<path d="M28.3414 34.4552C29.7221 33.0599 31.0146 31.7674 32.3218 30.4749C32.6596 30.1223 32.9975 29.7698 33.3647 29.4467C33.9522 28.9179 34.6131 28.9179 35.0831 29.4173C35.5385 29.902 35.5385 30.5483 35.0097 31.0917C34.1284 32.0024 33.2178 32.8983 32.3218 33.7943C31.3524 34.7637 30.3977 35.7331 29.4137 36.6878C28.6793 37.4222 28.0771 37.4222 27.3427 36.7025C26.667 36.0415 26.0061 35.3806 25.3598 34.7196C24.7429 34.088 24.6989 33.4271 25.2276 32.913C25.7417 32.3989 26.4027 32.4577 27.0342 33.0746C27.4602 33.5005 27.8714 33.9559 28.3414 34.4552Z" fill="#81D100"/>
</svg>
