<svg width="252" height="72" viewBox="0 0 252 72" fill="none" xmlns="http://www.w3.org/2000/svg">
<path d="M72.98 10.12V14.88H82.92V20.06H72.98V24.82H84.04V30H67.52V4.94H84.04V10.12H72.98ZM87.8096 30V4.94H93.0596V30H87.8096ZM113.389 25.835C112.549 27.305 111.441 28.46 110.064 29.3C108.711 30.14 107.066 30.56 105.129 30.56C103.799 30.56 102.562 30.3383 101.419 29.895C100.299 29.4283 99.3189 28.7867 98.4789 27.97C97.6389 27.1533 96.9855 26.1967 96.5189 25.1C96.0522 23.98 95.8189 22.755 95.8189 21.425C95.8189 20.1883 96.0522 19.0217 96.5189 17.925C96.9855 16.805 97.6272 15.8367 98.4439 15.02C99.2839 14.18 100.252 13.515 101.349 13.025C102.469 12.535 103.682 12.29 104.989 12.29C106.412 12.29 107.661 12.5233 108.734 12.99C109.831 13.4567 110.741 14.0983 111.464 14.915C112.187 15.7083 112.736 16.6533 113.109 17.75C113.482 18.8233 113.669 19.9783 113.669 21.215C113.669 21.4017 113.657 21.5883 113.634 21.775C113.634 21.9617 113.622 22.125 113.599 22.265C113.576 22.4283 113.564 22.58 113.564 22.72H100.929C101.186 23.84 101.711 24.6567 102.504 25.17C103.297 25.6833 104.184 25.94 105.164 25.94C106.144 25.94 106.949 25.73 107.579 25.31C108.232 24.89 108.746 24.3533 109.119 23.7L113.389 25.835ZM108.734 19.15C108.687 18.87 108.571 18.5667 108.384 18.24C108.221 17.9133 107.976 17.6217 107.649 17.365C107.346 17.085 106.961 16.8633 106.494 16.7C106.051 16.5133 105.549 16.42 104.989 16.42C104.172 16.42 103.414 16.6533 102.714 17.12C102.014 17.5867 101.501 18.2633 101.174 19.15H108.734ZM116.623 4.94H121.873V17.68H122.223L127.123 12.85H133.528V13.2L127.333 19.15L134.158 29.65V30H127.998L123.623 22.755L121.873 24.435V30H116.623V4.94ZM137.859 17.26H134.849V12.85H137.859V7.6H143.109V12.85H147.344V17.26H143.109V23.035C143.109 23.4083 143.155 23.7583 143.249 24.085C143.342 24.3883 143.505 24.645 143.739 24.855C144.089 25.1583 144.544 25.31 145.104 25.31C145.477 25.31 145.792 25.2633 146.049 25.17C146.305 25.0767 146.527 24.96 146.714 24.82L148.184 29.37C147.577 29.65 146.924 29.8717 146.224 30.035C145.524 30.1983 144.777 30.28 143.984 30.28C142.14 30.28 140.682 29.7433 139.609 28.67C139.049 28.11 138.617 27.4217 138.314 26.605C138.01 25.765 137.859 24.8433 137.859 23.84V17.26ZM150.837 12.85H155.737V15.02H156.087C156.554 14.2733 157.219 13.6433 158.082 13.13C158.945 12.6167 159.902 12.36 160.952 12.36C161.582 12.36 162.13 12.4417 162.597 12.605C163.064 12.745 163.449 12.9083 163.752 13.095L162.387 17.715C162.084 17.5517 161.757 17.4233 161.407 17.33C161.08 17.2367 160.649 17.19 160.112 17.19C158.805 17.19 157.802 17.645 157.102 18.555C156.425 19.465 156.087 20.655 156.087 22.125V30H150.837V12.85ZM173.042 12.29C174.372 12.29 175.597 12.5233 176.717 12.99C177.861 13.4333 178.841 14.0633 179.657 14.88C180.497 15.6733 181.139 16.63 181.582 17.75C182.049 18.87 182.282 20.095 182.282 21.425C182.282 22.755 182.049 23.98 181.582 25.1C181.139 26.22 180.497 27.1883 179.657 28.005C178.841 28.7983 177.861 29.4283 176.717 29.895C175.597 30.3383 174.372 30.56 173.042 30.56C171.712 30.56 170.476 30.3383 169.332 29.895C168.212 29.4283 167.232 28.7983 166.392 28.005C165.576 27.1883 164.934 26.22 164.467 25.1C164.024 23.98 163.802 22.755 163.802 21.425C163.802 20.095 164.024 18.87 164.467 17.75C164.934 16.63 165.576 15.6733 166.392 14.88C167.232 14.0633 168.212 13.4333 169.332 12.99C170.476 12.5233 171.712 12.29 173.042 12.29ZM173.042 25.66C173.579 25.66 174.081 25.5667 174.547 25.38C175.037 25.17 175.469 24.89 175.842 24.54C176.216 24.1667 176.507 23.7233 176.717 23.21C176.927 22.6733 177.032 22.0783 177.032 21.425C177.032 20.7717 176.927 20.1883 176.717 19.675C176.507 19.1617 176.216 18.7183 175.842 18.345C175.469 17.9717 175.037 17.6917 174.547 17.505C174.081 17.295 173.579 17.19 173.042 17.19C172.506 17.19 171.992 17.295 171.502 17.505C171.036 17.6917 170.616 17.9717 170.242 18.345C169.869 18.7183 169.577 19.1617 169.367 19.675C169.157 20.1883 169.052 20.7717 169.052 21.425C169.052 22.0783 169.157 22.6733 169.367 23.21C169.577 23.7233 169.869 24.1667 170.242 24.54C170.616 24.89 171.036 25.17 171.502 25.38C171.992 25.5667 172.506 25.66 173.042 25.66ZM184.88 12.85H189.78V15.02H190.13C190.69 14.1567 191.402 13.4917 192.265 13.025C193.152 12.535 194.19 12.29 195.38 12.29C196.687 12.29 197.772 12.605 198.635 13.235C199.498 13.8417 200.105 14.5533 200.455 15.37C200.968 14.5533 201.703 13.8417 202.66 13.235C203.617 12.605 204.818 12.29 206.265 12.29C207.292 12.29 208.19 12.465 208.96 12.815C209.73 13.1417 210.36 13.6083 210.85 14.215C211.363 14.8217 211.748 15.545 212.005 16.385C212.262 17.225 212.39 18.1467 212.39 19.15V30H207.14V20.165C207.14 19.2783 206.93 18.5667 206.51 18.03C206.113 17.47 205.518 17.19 204.725 17.19C203.582 17.19 202.718 17.6567 202.135 18.59C201.552 19.5 201.26 20.725 201.26 22.265V30H196.01V20.165C196.01 19.2783 195.788 18.5667 195.345 18.03C194.925 17.47 194.26 17.19 193.35 17.19C192.277 17.19 191.472 17.6567 190.935 18.59C190.398 19.5 190.13 20.725 190.13 22.265V30H184.88V12.85ZM226.273 28.46H225.923C225.363 29.0667 224.722 29.5683 223.998 29.965C223.298 30.3617 222.388 30.56 221.268 30.56C220.405 30.56 219.588 30.42 218.818 30.14C218.072 29.86 217.407 29.4633 216.823 28.95C216.263 28.4367 215.82 27.8183 215.493 27.095C215.167 26.3717 215.003 25.5667 215.003 24.68C215.003 23.8167 215.178 23.035 215.528 22.335C215.878 21.6117 216.357 20.9933 216.963 20.48C217.57 19.9667 218.282 19.57 219.098 19.29C219.938 19.01 220.848 18.87 221.828 18.87C222.878 18.87 223.742 18.94 224.418 19.08C225.118 19.22 225.737 19.3833 226.273 19.57V19.115C226.273 18.3683 225.958 17.7383 225.328 17.225C224.722 16.6883 223.893 16.42 222.843 16.42C221.327 16.42 220.02 17.0383 218.923 18.275L215.353 15.755C216.333 14.5883 217.465 13.725 218.748 13.165C220.055 12.5817 221.49 12.29 223.053 12.29C225.853 12.29 227.965 12.92 229.388 14.18C230.812 15.4167 231.523 17.3067 231.523 19.85V30H226.273V28.46ZM226.273 23.245C225.737 23.035 225.2 22.8717 224.663 22.755C224.15 22.6383 223.613 22.58 223.053 22.58C222.12 22.58 221.42 22.7783 220.953 23.175C220.487 23.5483 220.253 24.0383 220.253 24.645C220.253 25.2517 220.475 25.7417 220.918 26.115C221.362 26.465 221.945 26.64 222.668 26.64C223.252 26.64 223.765 26.5467 224.208 26.36C224.675 26.15 225.06 25.8817 225.363 25.555C225.667 25.2283 225.888 24.8667 226.028 24.47C226.192 24.05 226.273 23.6417 226.273 23.245ZM239.222 21.285L233.342 12.85H239.642L242.232 16.98H242.582L244.962 12.85H251.472L245.452 21.285L251.437 30H245.207L242.512 25.835H242.162L239.537 30H233.307L239.222 21.285Z" fill="#036DB9"/>
<path d="M67.52 40.94H72.98V66H67.52V40.94ZM82.3532 51.02H82.7032C83.8698 49.2 85.6198 48.29 87.9532 48.29C90.0998 48.29 91.6982 48.9783 92.7482 50.355C93.7982 51.7317 94.3232 53.54 94.3232 55.78V66H89.0732V56.375C89.0732 55.4417 88.8515 54.6833 88.4082 54.1C87.9648 53.4933 87.2765 53.19 86.3432 53.19C85.1532 53.19 84.2432 53.645 83.6132 54.555C83.0065 55.465 82.7032 56.655 82.7032 58.125V66H77.4532V48.85H82.3532V51.02ZM95.5941 48.85H101.684L105.534 58.58H105.884L109.804 48.85H115.824L108.264 66H103.084L95.5941 48.85ZM133.999 61.835C133.159 63.305 132.051 64.46 130.674 65.3C129.321 66.14 127.676 66.56 125.739 66.56C124.409 66.56 123.173 66.3383 122.029 65.895C120.909 65.4283 119.929 64.7867 119.089 63.97C118.249 63.1533 117.596 62.1967 117.129 61.1C116.663 59.98 116.429 58.755 116.429 57.425C116.429 56.1883 116.663 55.0217 117.129 53.925C117.596 52.805 118.238 51.8367 119.054 51.02C119.894 50.18 120.863 49.515 121.959 49.025C123.079 48.535 124.293 48.29 125.599 48.29C127.023 48.29 128.271 48.5233 129.344 48.99C130.441 49.4567 131.351 50.0983 132.074 50.915C132.798 51.7083 133.346 52.6533 133.719 53.75C134.093 54.8233 134.279 55.9783 134.279 57.215C134.279 57.4017 134.268 57.5883 134.244 57.775C134.244 57.9617 134.233 58.125 134.209 58.265C134.186 58.4283 134.174 58.58 134.174 58.72H121.539C121.796 59.84 122.321 60.6567 123.114 61.17C123.908 61.6833 124.794 61.94 125.774 61.94C126.754 61.94 127.559 61.73 128.189 61.31C128.843 60.89 129.356 60.3533 129.729 59.7L133.999 61.835ZM129.344 55.15C129.298 54.87 129.181 54.5667 128.994 54.24C128.831 53.9133 128.586 53.6217 128.259 53.365C127.956 53.085 127.571 52.8633 127.104 52.7C126.661 52.5133 126.159 52.42 125.599 52.42C124.783 52.42 124.024 52.6533 123.324 53.12C122.624 53.5867 122.111 54.2633 121.784 55.15H129.344ZM144.474 66.56C143.284 66.56 142.234 66.42 141.324 66.14C140.414 65.86 139.621 65.4983 138.944 65.055C138.291 64.5883 137.743 64.0633 137.299 63.48C136.856 62.8733 136.518 62.2667 136.284 61.66L141.009 59.665C141.336 60.4583 141.791 61.0417 142.374 61.415C142.958 61.765 143.658 61.94 144.474 61.94C145.174 61.94 145.711 61.835 146.084 61.625C146.481 61.3917 146.679 61.1 146.679 60.75C146.679 60.3533 146.493 60.05 146.119 59.84C145.746 59.6067 145.151 59.3967 144.334 59.21L141.989 58.72C141.429 58.6033 140.858 58.4167 140.274 58.16C139.691 57.9033 139.154 57.565 138.664 57.145C138.174 56.725 137.778 56.235 137.474 55.675C137.171 55.0917 137.019 54.4267 137.019 53.68C137.019 52.8633 137.194 52.1283 137.544 51.475C137.918 50.7983 138.419 50.2267 139.049 49.76C139.679 49.2933 140.426 48.9317 141.289 48.675C142.153 48.4183 143.098 48.29 144.124 48.29C145.898 48.29 147.426 48.605 148.709 49.235C149.993 49.8417 150.961 50.8683 151.614 52.315L147.099 54.17C146.796 53.5633 146.364 53.12 145.804 52.84C145.268 52.56 144.719 52.42 144.159 52.42C143.553 52.42 143.063 52.525 142.689 52.735C142.316 52.945 142.129 53.2017 142.129 53.505C142.129 53.8317 142.316 54.1 142.689 54.31C143.086 54.4967 143.564 54.66 144.124 54.8L146.784 55.43C148.534 55.85 149.841 56.5267 150.704 57.46C151.568 58.3933 151.999 59.49 151.999 60.75C151.999 61.52 151.813 62.255 151.439 62.955C151.089 63.655 150.576 64.2733 149.899 64.81C149.246 65.3467 148.453 65.7667 147.519 66.07C146.609 66.3967 145.594 66.56 144.474 66.56ZM156.521 53.26H153.511V48.85H156.521V43.6H161.771V48.85H166.006V53.26H161.771V59.035C161.771 59.4083 161.818 59.7583 161.911 60.085C162.004 60.3883 162.168 60.645 162.401 60.855C162.751 61.1583 163.206 61.31 163.766 61.31C164.139 61.31 164.454 61.2633 164.711 61.17C164.968 61.0767 165.189 60.96 165.376 60.82L166.846 65.37C166.239 65.65 165.586 65.8717 164.886 66.035C164.186 66.1983 163.439 66.28 162.646 66.28C160.803 66.28 159.344 65.7433 158.271 64.67C157.711 64.11 157.279 63.4217 156.976 62.605C156.673 61.765 156.521 60.8433 156.521 59.84V53.26Z" fill="#81D100"/>
<path d="M13.1462 57.631L14.7124 54.3173C11.2636 52.5004 8.39785 49.7467 6.4447 46.3732C4.49155 42.9996 3.5304 39.1433 3.67182 35.2477C3.81324 31.3521 5.0515 27.5756 7.24413 24.3526C9.43676 21.1295 12.4947 18.591 16.0661 17.0288L17.5759 12.5918C7.43274 15.5429 0 24.9252 0 36.0015C0.00379505 40.4642 1.23143 44.8405 3.54931 48.6541C5.86719 52.4677 9.18652 55.5726 13.1462 57.631Z" fill="#036DB9"/>
<path d="M36.4787 14.8489L34.6242 18.0096C37.8006 19.819 40.4419 22.4364 42.2801 25.5962C44.1184 28.7561 45.0883 32.3459 45.0913 36.0015C45.0913 47.424 35.7981 56.7172 24.3756 56.7172C23.351 56.7169 22.3279 56.6409 21.3145 56.4898L19.0633 59.7946C20.8073 60.1835 22.5888 60.3794 24.3756 60.3785C37.816 60.3785 48.7452 49.4449 48.7452 36.0089C48.7444 31.7142 47.6097 27.4959 45.4558 23.7804C43.3019 20.0648 40.2051 16.9839 36.4787 14.8489Z" fill="#036DB9"/>
<path d="M23.7708 40.4118L10.736 68L38.7908 26.8777L23.3473 32.7874L40.2292 4H22.8733L9.10147 44.5101L23.7708 40.4118Z" fill="#81D100"/>
</svg>
