<svg width="62" height="62" viewBox="0 0 62 62" fill="none" xmlns="http://www.w3.org/2000/svg">
<g filter="url(#filter0_d_192_5923)">
<path d="M30.9863 5.00007C39.7674 4.97336 46.981 12.1425 46.9988 20.9324C47.0166 29.7402 40.0078 36.8737 31.2268 36.9984C22.3299 37.1231 15.0718 30.0341 15.0005 21.1551C14.9293 12.2048 22.0717 5.02679 30.9863 5.00007ZM35.7019 30.5581C35.9507 30.5935 36.2184 30.5952 36.4366 30.4705C37.8794 29.5621 39.1974 28.4845 40.3195 27.1932C40.7292 26.7212 40.7025 26.454 40.2127 26.08C38.8946 25.0914 37.4964 24.2276 36.0003 23.5507C35.5104 23.3281 35.3501 23.3726 34.9761 23.7734C34.5664 24.2097 34.1746 24.6639 33.7827 25.1181C33.658 25.2606 33.5245 25.3141 33.3463 25.225C32.5537 24.8599 31.7077 24.5749 30.9774 24.1118C28.9291 22.8294 27.5309 21.0126 26.7828 18.6971C26.7116 18.4745 26.7561 18.3231 26.9253 18.1717C27.3528 17.8065 27.7803 17.4325 28.1988 17.0495C28.6441 16.6399 28.6797 16.4974 28.4304 15.9452C27.7624 14.4758 26.9075 13.1132 25.9457 11.813C25.5538 11.2875 25.2777 11.2519 24.7879 11.6883C23.5055 12.8104 22.4368 14.1106 21.5373 15.5534C21.4305 15.7226 21.3948 15.9808 21.4305 16.1857C21.5641 16.8447 21.6976 17.5126 21.9203 18.1538C22.7218 20.4871 24.0933 22.4909 25.7319 24.3166C27.8426 26.6677 30.2561 28.6003 33.1949 29.8382C33.978 30.1749 34.7955 30.429 35.7019 30.5581ZM31.6889 12.1129C31.6906 12.4548 31.9488 12.73 32.2867 12.7823C36.3192 13.406 38.6042 15.7006 39.2088 19.693C39.2608 20.0363 39.5399 20.3001 39.8872 20.3001C40.2592 20.3001 40.5748 19.9993 40.55 19.6281C40.243 15.0441 36.3406 11.6291 32.3358 11.4483C31.972 11.4318 31.6871 11.7487 31.6889 12.1129ZM36.477 20.3102C36.8471 20.3083 37.1504 20.0111 37.1108 19.6431C36.8134 16.8847 34.3848 15.0205 32.3231 14.8813C31.9674 14.8573 31.6988 15.1568 31.6988 15.5133C31.6988 15.8901 31.9982 16.1998 32.3695 16.2646C33.215 16.4123 33.9532 16.7837 34.5842 17.4147C35.2264 18.0497 35.5942 18.8048 35.7425 19.6617C35.8052 20.0239 36.1093 20.312 36.477 20.3102Z" fill="url(#paint0_linear_192_5923)"/>
</g>
<defs>
<filter id="filter0_d_192_5923" x="0" y="0" width="61.9989" height="62" filterUnits="userSpaceOnUse" color-interpolation-filters="sRGB">
<feFlood flood-opacity="0" result="BackgroundImageFix"/>
<feColorMatrix in="SourceAlpha" type="matrix" values="0 0 0 0 0 0 0 0 0 0 0 0 0 0 0 0 0 0 127 0" result="hardAlpha"/>
<feOffset dy="10"/>
<feGaussianBlur stdDeviation="7.5"/>
<feComposite in2="hardAlpha" operator="out"/>
<feColorMatrix type="matrix" values="0 0 0 0 0.505882 0 0 0 0 0.819608 0 0 0 0 0 0 0 0 0.3 0"/>
<feBlend mode="normal" in2="BackgroundImageFix" result="effect1_dropShadow_192_5923"/>
<feBlend mode="normal" in="SourceGraphic" in2="effect1_dropShadow_192_5923" result="shape"/>
</filter>
<linearGradient id="paint0_linear_192_5923" x1="15" y1="21" x2="46.9989" y2="21" gradientUnits="userSpaceOnUse">
<stop stop-color="#81D100"/>
<stop offset="1" stop-color="#71B800"/>
</linearGradient>
</defs>
</svg>
